<svg width="468" height="128" viewBox="0 0 468 128" fill="none" xmlns="http://www.w3.org/2000/svg">
<path d="M90.9238 85.7692L94.3728 91.7377C96.2043 94.9013 100.612 96.0882 103.789 94.2562L105.613 93.2005C107.609 94.7706 109.809 96.0613 112.153 97.0369V99.1C112.153 102.905 115.247 106 119.051 106H125.949C129.753 106 132.847 102.905 132.847 99.1V97.0369C135.19 96.0611 137.39 94.7717 139.387 93.204L141.211 94.2597C144.395 96.0882 148.792 94.9082 150.631 91.7377L154.076 85.7726C154.99 84.1881 155.238 82.3054 154.765 80.5381C154.293 78.7708 153.138 77.2635 151.555 76.3472L149.813 75.3399C150.184 72.7957 150.184 70.2112 149.813 67.667L151.555 66.6597C153.137 65.7427 154.291 64.2354 154.764 62.4684C155.237 60.7014 154.989 58.819 154.076 57.2342L150.631 51.2692C148.799 48.0952 144.395 46.9049 141.211 48.7438L139.387 49.7995C137.391 48.2294 135.191 46.9387 132.847 45.9631V43.9C132.847 40.0946 129.753 37 125.949 37H119.051C115.247 37 112.153 40.0946 112.153 43.9V45.9631C109.81 46.9389 107.61 48.2283 105.613 49.7961L103.789 48.7403C100.602 46.9084 96.2008 48.0952 94.3694 51.2658L90.9238 57.2308C90.0097 58.8154 89.7618 60.6981 90.2346 62.4654C90.7073 64.2326 91.862 65.7399 93.445 66.6562L95.1868 67.6636C94.8151 70.2065 94.8151 72.79 95.1868 75.333L93.445 76.3404C91.8625 77.2579 90.7083 78.7658 90.2356 80.5334C89.763 82.301 90.0105 84.1839 90.9238 85.7692ZM102.395 76.2541C102.006 74.6993 101.808 73.1028 101.806 71.5C101.806 69.9061 102.006 68.3053 102.392 66.7459C102.574 66.0191 102.514 65.2528 102.221 64.563C101.929 63.8732 101.42 63.2976 100.771 62.9233L96.8976 60.6808L100.34 54.7158L104.289 56.9997C104.933 57.3724 105.68 57.5262 106.419 57.4378C107.158 57.3495 107.848 57.0238 108.386 56.5098C110.72 54.2899 113.534 52.6382 116.609 51.6832C117.315 51.4675 117.934 51.0306 118.374 50.4368C118.813 49.8431 119.051 49.1238 119.051 48.385V43.9H125.949V48.385C125.949 49.1238 126.187 49.8431 126.626 50.4368C127.066 51.0306 127.685 51.4675 128.391 51.6832C131.466 52.6396 134.279 54.2911 136.614 56.5098C137.152 57.0228 137.842 57.3478 138.581 57.4361C139.319 57.5244 140.067 57.3713 140.711 56.9997L144.657 54.7192L148.106 60.6842L144.229 62.9233C143.581 63.298 143.072 63.8737 142.779 64.5633C142.487 65.253 142.427 66.0191 142.608 66.7459C142.994 68.3053 143.194 69.9061 143.194 71.5C143.194 73.0905 142.994 74.6913 142.605 76.2541C142.424 76.9813 142.484 77.7477 142.777 78.4373C143.07 79.127 143.58 79.7025 144.229 80.0767L148.102 82.3158L144.66 88.2808L140.711 86.0003C140.067 85.627 139.32 85.4729 138.581 85.5613C137.842 85.6496 137.151 85.9757 136.614 86.4902C134.28 88.7101 131.466 90.3618 128.391 91.3168C127.685 91.5325 127.066 91.9694 126.626 92.5632C126.187 93.1569 125.949 93.8762 125.949 94.615L125.956 99.1H119.051V94.615C119.051 93.8762 118.813 93.1569 118.374 92.5632C117.934 91.9694 117.315 91.5325 116.609 91.3168C113.534 90.3604 110.721 88.7089 108.386 86.4902C107.849 85.9742 107.159 85.6474 106.419 85.5597C105.68 85.4719 104.932 85.6278 104.289 86.0038L100.343 88.2877L96.8941 82.3227L100.771 80.0767C101.42 79.7025 101.93 79.127 102.223 78.4373C102.516 77.7477 102.576 76.9813 102.395 76.2541Z" fill="white"/>
<path d="M351.691 100.607L359.5 87.0824H334.236C338.062 93.6996 344.328 98.5548 351.691 100.607ZM331.254 79.7912H346.872L340.554 68.8526L334.236 57.914C331.672 62.3468 330.326 67.379 330.335 72.5C330.335 75.0155 330.656 77.458 331.254 79.7912ZM339.066 51.691L346.868 65.2088L359.5 43.3353C351.855 43.3253 344.514 46.3273 339.066 51.691ZM367.309 44.3925L359.5 57.9176H384.764C380.938 51.3004 374.672 46.4452 367.309 44.3925ZM387.746 65.2088H372.128L384.76 87.086C387.326 82.6535 388.673 77.6213 388.665 72.5C388.665 69.9845 388.344 67.542 387.746 65.2088ZM379.934 93.309L372.132 79.7912L359.5 101.665C367.145 101.675 374.486 98.6727 379.934 93.309ZM359.5 106C339.365 106 326 92.6346 326 72.5C326 52.3654 339.365 39 359.5 39C379.635 39 393 52.3654 393 72.5C393 92.6346 379.635 106 359.5 106ZM363.711 65.2088H355.289L351.082 72.5L355.289 79.7912H363.711L367.918 72.5L363.711 65.2088Z" fill="white"/>
<path d="M50.944 107.152C41.8133 107.152 34.0053 105.275 27.52 101.52C21.0347 97.7653 16.0427 92.432 12.544 85.52C9.13067 78.5227 7.424 70.288 7.424 60.816C7.424 53.7333 8.40533 47.376 10.368 41.744C12.3307 36.0267 15.1467 31.1627 18.816 27.152C22.5707 23.056 27.136 19.9413 32.512 17.808C37.9733 15.6747 44.1173 14.608 50.944 14.608C55.9787 14.608 60.8 15.2907 65.408 16.656C70.1013 18.0213 74.1547 19.984 77.568 22.544C79.0187 23.4827 79.9573 24.6347 80.384 26C80.896 27.28 80.9813 28.5173 80.64 29.712C80.384 30.9067 79.8293 31.9307 78.976 32.784C78.1227 33.552 77.0133 33.9787 75.648 34.064C74.368 34.1493 72.96 33.68 71.424 32.656C68.608 30.5227 65.4933 28.944 62.08 27.92C58.6667 26.896 55.0827 26.384 51.328 26.384C44.8427 26.384 39.3813 27.7493 34.944 30.48C30.5067 33.1253 27.136 37.008 24.832 42.128C22.528 47.248 21.376 53.4773 21.376 60.816C21.376 68.1547 22.528 74.4267 24.832 79.632C27.136 84.752 30.5067 88.6773 34.944 91.408C39.3813 94.0533 44.8427 95.376 51.328 95.376C55.0827 95.376 58.6667 94.864 62.08 93.84C65.5787 92.7307 68.864 91.1093 71.936 88.976C73.472 88.0373 74.8373 87.6107 76.032 87.696C77.312 87.7813 78.3787 88.208 79.232 88.976C80.0853 89.744 80.64 90.7253 80.896 91.92C81.2373 93.0293 81.1947 94.224 80.768 95.504C80.4267 96.6987 79.616 97.7227 78.336 98.576C74.8373 101.392 70.6987 103.525 65.92 104.976C61.1413 106.427 56.1493 107.152 50.944 107.152ZM169.488 106.896C167.44 106.896 165.861 106.341 164.752 105.232C163.643 104.037 163.088 102.416 163.088 100.368V49.168C163.088 47.0347 163.643 45.4133 164.752 44.304C165.861 43.1947 167.397 42.64 169.36 42.64C171.408 42.64 172.944 43.1947 173.968 44.304C175.077 45.4133 175.632 47.0347 175.632 49.168V59.152L174.224 56.848C176.101 52.0693 179.045 48.4853 183.056 46.096C187.067 43.6213 191.675 42.384 196.88 42.384C201.829 42.384 205.925 43.3227 209.168 45.2C212.496 46.992 214.971 49.7653 216.592 53.52C218.213 57.1893 219.024 61.84 219.024 67.472V100.368C219.024 102.416 218.469 104.037 217.36 105.232C216.251 106.341 214.672 106.896 212.624 106.896C210.491 106.896 208.869 106.341 207.76 105.232C206.651 104.037 206.096 102.416 206.096 100.368V68.24C206.096 62.864 205.029 58.9387 202.896 56.464C200.848 53.9893 197.605 52.752 193.168 52.752C187.963 52.752 183.781 54.3733 180.624 57.616C177.552 60.8587 176.016 65.2107 176.016 70.672V100.368C176.016 104.72 173.84 106.896 169.488 106.896ZM263.462 107.152C258.342 107.152 254.033 106.256 250.534 104.464C247.035 102.672 244.433 100.027 242.726 96.528C241.019 93.0293 240.166 88.7627 240.166 83.728V53.52H232.486C230.779 53.52 229.457 53.0933 228.518 52.24C227.579 51.3013 227.11 50.064 227.11 48.528C227.11 46.9067 227.579 45.6693 228.518 44.816C229.457 43.9627 230.779 43.536 232.486 43.536H240.166V30.352C240.166 28.2187 240.721 26.5973 241.83 25.488C243.025 24.3787 244.646 23.824 246.694 23.824C248.742 23.824 250.321 24.3787 251.43 25.488C252.539 26.5973 253.094 28.2187 253.094 30.352V43.536H268.07C269.777 43.536 271.099 43.9627 272.038 44.816C272.977 45.6693 273.446 46.9067 273.446 48.528C273.446 50.064 272.977 51.3013 272.038 52.24C271.099 53.0933 269.777 53.52 268.07 53.52H253.094V82.704C253.094 87.2267 254.033 90.64 255.91 92.944C257.873 95.248 261.03 96.4 265.382 96.4C266.918 96.4 268.241 96.272 269.35 96.016C270.545 95.6747 271.526 95.4613 272.294 95.376C273.233 95.376 274.001 95.7173 274.598 96.4C275.195 96.9973 275.494 98.192 275.494 99.984C275.494 101.264 275.238 102.459 274.726 103.568C274.299 104.677 273.489 105.403 272.294 105.744C271.27 106.085 269.862 106.384 268.07 106.64C266.363 106.981 264.827 107.152 263.462 107.152ZM290.116 106.896C287.983 106.896 286.361 106.341 285.252 105.232C284.143 104.037 283.588 102.416 283.588 100.368V49.168C283.588 47.0347 284.143 45.4133 285.252 44.304C286.361 43.1947 287.897 42.64 289.86 42.64C291.908 42.64 293.444 43.1947 294.468 44.304C295.577 45.4133 296.132 47.0347 296.132 49.168V58.512H294.852C296.217 53.392 298.735 49.5093 302.404 46.864C306.073 44.2187 310.767 42.6827 316.484 42.256C318.02 42.1707 319.215 42.5547 320.068 43.408C321.007 44.2613 321.519 45.584 321.604 47.376C321.775 49.168 321.391 50.6187 320.452 51.728C319.513 52.752 318.063 53.3493 316.1 53.52L313.668 53.776C308.121 54.288 303.897 56.0373 300.996 59.024C298.095 62.0107 296.644 66.1067 296.644 71.312V100.368C296.644 102.416 296.089 104.037 294.98 105.232C293.956 106.341 292.335 106.896 290.116 106.896ZM418.934 107.152C412.278 107.152 407.243 105.232 403.83 101.392C400.502 97.4667 398.838 91.8347 398.838 84.496V21.392C398.838 19.2587 399.393 17.6373 400.502 16.528C401.611 15.4187 403.19 14.864 405.238 14.864C407.286 14.864 408.865 15.4187 409.974 16.528C411.169 17.6373 411.766 19.2587 411.766 21.392V83.728C411.766 87.9947 412.619 91.1947 414.326 93.328C416.118 95.376 418.678 96.4 422.006 96.4C422.774 96.4 423.457 96.4 424.054 96.4C424.651 96.3147 425.249 96.2293 425.846 96.144C426.87 96.0587 427.595 96.3573 428.022 97.04C428.449 97.6373 428.662 98.9173 428.662 100.88C428.662 102.672 428.278 104.08 427.51 105.104C426.742 106.043 425.505 106.64 423.798 106.896C423.03 106.981 422.219 107.024 421.366 107.024C420.513 107.109 419.702 107.152 418.934 107.152ZM458.059 107.152C451.403 107.152 446.368 105.232 442.955 101.392C439.627 97.4667 437.963 91.8347 437.963 84.496V21.392C437.963 19.2587 438.518 17.6373 439.627 16.528C440.736 15.4187 442.315 14.864 444.363 14.864C446.411 14.864 447.99 15.4187 449.099 16.528C450.294 17.6373 450.891 19.2587 450.891 21.392V83.728C450.891 87.9947 451.744 91.1947 453.451 93.328C455.243 95.376 457.803 96.4 461.131 96.4C461.899 96.4 462.582 96.4 463.179 96.4C463.776 96.3147 464.374 96.2293 464.971 96.144C465.995 96.0587 466.72 96.3573 467.147 97.04C467.574 97.6373 467.787 98.9173 467.787 100.88C467.787 102.672 467.403 104.08 466.635 105.104C465.867 106.043 464.63 106.64 462.923 106.896C462.155 106.981 461.344 107.024 460.491 107.024C459.638 107.109 458.827 107.152 458.059 107.152Z" fill="white"/>
</svg>
