<svg width="48" height="48" viewBox="0 0 48 48" fill="none" xmlns="http://www.w3.org/2000/svg">
<path d="M26 37.4667H22.1333C21.4667 37.4667 20.9333 37.0667 20.8 36.4L20.1333 34L19.6 33.7333L17.4667 34.9333C16.9333 35.2 16.2667 35.2 15.8667 34.6667L13.0667 31.8667C12.6667 31.4667 12.5333 30.8 12.8 30.2667L14 28.1333L13.7333 27.6L11.3333 26.9333C10.8 26.8 10.2667 26.2667 10.2667 25.6V21.7333C10.2667 21.0667 10.6667 20.5333 11.3333 20.4L13.7333 19.7333L14 19.2L12.8 17.0667C12.5333 16.5333 12.5333 15.8667 13.0667 15.4667L15.8667 12.6667C16.2667 12.2667 16.9333 12.1333 17.4667 12.4L19.6 13.6L20.1333 13.3333L20.8 10.9333C20.9333 10.4 21.4667 9.86667 22.1333 9.86667H26C26.6667 9.86667 27.2 10.2667 27.3333 10.9333L28 13.3333L28.5333 13.6L30.6667 12.4C31.2 12.1333 31.8667 12.1333 32.2667 12.6667L35.0667 15.4667C35.4667 15.8667 35.6 16.5333 35.3333 17.0667L34.1333 19.2L34.4 19.7333L36.8 20.4C37.3333 20.5333 37.8667 21.0667 37.8667 21.7333V25.6C37.8667 26.2667 37.4667 26.8 36.8 26.9333L34.4 27.6L34.1333 28.1333L35.3333 30.2667C35.6 30.8 35.6 31.4667 35.0667 31.8667L32.2667 34.6667C31.8667 35.0667 31.2 35.2 30.6667 34.9333L28.5333 33.7333L28 34L27.3333 36.4C27.0667 37.0667 26.5333 37.4667 26 37.4667ZM23.0667 34.8H24.9333L25.6 32L26.2667 31.7333C26.8 31.6 27.2 31.3333 27.7333 31.2L28.4 30.8L30.9333 32.2667L32.2667 30.9333L30.8 28.4L31.2 27.7333C31.4667 27.3333 31.6 26.8 31.7333 26.2667L32 25.6L34.8 24.9333V23.0667L32 22.4L31.7333 21.7333C31.6 21.2 31.3333 20.8 31.2 20.2667L30.8 19.6L32.2667 17.0667L30.9333 15.7333L28.4 17.2L27.7333 16.8C27.3333 16.5333 26.8 16.4 26.2667 16.2667L25.6 16L24.9333 13.2H23.0667L22.4 16L21.7333 16.2667C21.2 16.4 20.8 16.6667 20.2667 16.8L19.6 17.2L17.0667 15.7333L15.7333 17.0667L17.2 19.6L16.8 20.2667C16.5333 20.6667 16.4 21.2 16.2667 21.7333L16 22.4L13.2 23.0667V24.9333L16 25.6L16.2667 26.2667C16.4 26.8 16.6667 27.2 16.8 27.7333L17.2 28.4L15.7333 30.9333L17.0667 32.2667L19.6 30.8L20.2667 31.2C20.6667 31.4667 21.2 31.6 21.7333 31.7333L22.4 32L23.0667 34.8Z" fill="white"/>
<path d="M24 29.7333C20.8 29.7333 18.2667 27.2 18.2667 24C18.2667 20.8 20.8 18.2667 24 18.2667C27.2 18.2667 29.7333 20.8 29.7333 24C29.7333 27.2 27.2 29.7333 24 29.7333ZM24 20.9333C22.2667 20.9333 20.9333 22.2667 20.9333 24C20.9333 25.7333 22.2667 27.0667 24 27.0667C25.7333 27.0667 27.0667 25.7333 27.0667 24C27.0667 22.2667 25.7333 20.9333 24 20.9333V20.9333Z" fill="white"/>
<path d="M24 2.66666C23.2 2.66666 22.6667 3.2 22.6667 4C22.6667 4.8 23.2 5.33333 24 5.33333C34.2667 5.33333 42.6667 13.7333 42.6667 24C42.6667 34.2667 34.2667 42.6667 24 42.6667C13.7333 42.6667 5.33333 34.2667 5.33333 24C5.33333 20.2667 6.4 16.6667 8.53333 13.6V15.2C8.53333 16 9.06666 16.5333 9.86666 16.5333C10.6667 16.5333 11.2 16 11.2 15.2V8.53333H4.53333C3.73333 8.53333 3.2 9.06666 3.2 9.86666C3.2 10.6667 3.73333 11.2 4.53333 11.2H6.93333C4.13333 14.8 2.66666 19.3333 2.66666 24C2.66666 35.7333 12.2667 45.3333 24 45.3333C35.7333 45.3333 45.3333 35.7333 45.3333 24C45.3333 12.2667 35.7333 2.66666 24 2.66666Z" fill="white"/>
</svg>
