<svg width="108" height="95" viewBox="0 0 108 95" fill="none" xmlns="http://www.w3.org/2000/svg">
<path d="M40.8463 6.44425L16.1505 16.154C6.49439 19.9505 2.66541 29.2831 6.62993 39.3665L15.7797 62.6381C19.733 72.693 28.8928 76.9189 38.5489 73.1223L63.2447 63.4126C72.9009 59.6161 76.7014 50.2946 72.748 40.2397L63.5983 16.9681C59.6338 6.88474 50.5025 2.64772 40.8463 6.44425" fill="url(#paint0_linear_256_7262)"/>
<g opacity="0.5" filter="url(#filter0_f_256_7262)">
<path d="M67.946 39.8493L61.749 24.071C59.5012 18.3479 54.316 16.5381 47.6739 19.1469L25.1777 27.9824C18.4267 30.634 15.9462 35.4545 18.194 41.1777L24.3911 56.9559C26.6752 62.7714 31.7362 64.5212 38.4873 61.8697L60.9834 53.0341C67.6255 50.4253 70.2301 45.6647 67.946 39.8493Z" fill="#153860"/>
</g>
<g filter="url(#filter1_b_256_7262)">
<path d="M88.3279 33.2153L87.9196 32.318C86.8171 29.9931 85.5513 27.3011 84.7754 25.7511C82.8971 22.0802 79.6713 20.0408 75.7104 20H56.4779C52.5171 20.0408 49.3321 22.0802 47.4538 25.7511C46.6371 27.3826 45.2488 30.3194 44.1054 32.7259L43.8604 33.2153C43.7379 33.5416 43.4113 33.7048 43.0846 33.7048C33.2438 33.7048 25.2812 41.6992 25.2812 51.4883V75.7164C25.2812 85.5056 33.2438 93.5 43.0846 93.5H89.1446C98.9446 93.5 106.948 85.5056 106.948 75.7164V51.4883C106.948 41.6992 98.9446 33.7048 89.1446 33.7048C88.7771 33.7048 88.4913 33.5008 88.3279 33.2153Z" fill="#153860" fill-opacity="0.4"/>
<path d="M88.3747 32.1109L88.3747 32.1109L88.3714 32.1037C88.1833 31.7072 87.9904 31.2997 87.7958 30.8886C86.8515 28.894 85.8684 26.8176 85.2225 25.5273L85.2205 25.5234C83.2614 21.6946 79.8706 19.5428 75.7156 19.5V19.5H75.7104L56.4779 19.5L56.4728 19.5C52.3154 19.5428 48.9666 21.6967 47.0086 25.5233L47.0066 25.5273C46.2879 26.9631 45.1296 29.403 44.0855 31.6021C43.9396 31.9095 43.7959 32.2121 43.656 32.5066L43.4133 32.9915C43.4055 33.0072 43.3985 33.0232 43.3923 33.0396C43.3623 33.1195 43.2637 33.2048 43.0846 33.2048C32.9674 33.2048 24.7812 41.4233 24.7812 51.4883V75.7164C24.7812 85.7815 32.9674 94 43.0846 94H89.1446C99.2202 94 107.448 85.7822 107.448 75.7164V51.4883C107.448 41.4226 99.2202 33.2048 89.1446 33.2048C88.9892 33.2048 88.8603 33.1277 88.772 32.9841L88.3747 32.1109Z" stroke="url(#paint1_linear_256_7262)" stroke-linecap="round" stroke-linejoin="round"/>
</g>
<g filter="url(#filter2_bd_256_7262)">
<mask id="path-5-inside-1_256_7262" fill="white">
<path fill-rule="evenodd" clip-rule="evenodd" d="M85.347 48.8782C85.347 50.9176 86.9803 52.5491 89.022 52.5491C91.0637 52.5491 92.7378 50.9176 92.7378 48.8782C92.7378 46.8388 91.0637 45.1665 89.022 45.1665C86.9803 45.1665 85.347 46.8388 85.347 48.8782ZM77.4255 73.5142C74.5263 76.4102 70.5246 78.2048 66.1146 78.2048C61.8271 78.2048 57.8255 76.5325 54.763 73.5142C51.7413 70.4551 50.0671 66.4579 50.0671 62.1752C50.0263 57.9332 51.7005 53.936 54.7221 50.8769C57.7846 47.8178 61.8271 46.1455 66.1146 46.1455C70.4021 46.1455 74.4446 47.8178 77.4663 50.8361C80.488 53.8952 82.1621 57.9332 82.1621 62.1752C82.1213 66.621 80.3246 70.6183 77.4255 73.5142ZM66.1146 52.2635C63.4604 52.2635 60.9696 53.2832 59.0504 55.2002C57.1721 57.0765 56.1513 59.5646 56.1921 62.1342V62.175C56.1921 64.8262 57.2129 67.3143 59.0913 69.1905C60.9696 71.0668 63.4604 72.0865 66.1146 72.0865C71.5863 72.0865 75.9963 67.6406 76.0371 62.175C76.0371 59.5238 75.0163 57.0357 73.1379 55.1595C71.2596 53.2832 68.7688 52.2635 66.1146 52.2635Z"/>
</mask>
<path fill-rule="evenodd" clip-rule="evenodd" d="M85.347 48.8782C85.347 50.9176 86.9803 52.5491 89.022 52.5491C91.0637 52.5491 92.7378 50.9176 92.7378 48.8782C92.7378 46.8388 91.0637 45.1665 89.022 45.1665C86.9803 45.1665 85.347 46.8388 85.347 48.8782ZM77.4255 73.5142C74.5263 76.4102 70.5246 78.2048 66.1146 78.2048C61.8271 78.2048 57.8255 76.5325 54.763 73.5142C51.7413 70.4551 50.0671 66.4579 50.0671 62.1752C50.0263 57.9332 51.7005 53.936 54.7221 50.8769C57.7846 47.8178 61.8271 46.1455 66.1146 46.1455C70.4021 46.1455 74.4446 47.8178 77.4663 50.8361C80.488 53.8952 82.1621 57.9332 82.1621 62.1752C82.1213 66.621 80.3246 70.6183 77.4255 73.5142ZM66.1146 52.2635C63.4604 52.2635 60.9696 53.2832 59.0504 55.2002C57.1721 57.0765 56.1513 59.5646 56.1921 62.1342V62.175C56.1921 64.8262 57.2129 67.3143 59.0913 69.1905C60.9696 71.0668 63.4604 72.0865 66.1146 72.0865C71.5863 72.0865 75.9963 67.6406 76.0371 62.175C76.0371 59.5238 75.0163 57.0357 73.1379 55.1595C71.2596 53.2832 68.7688 52.2635 66.1146 52.2635Z" fill="url(#paint2_linear_256_7262)"/>
<path d="M77.4255 73.5142L77.5668 73.6557L77.4255 73.5142ZM54.763 73.5142L54.6207 73.6548L54.6226 73.6567L54.763 73.5142ZM50.0671 62.1752H50.2671L50.2671 62.1732L50.0671 62.1752ZM54.7221 50.8769L54.5808 50.7354L54.5798 50.7363L54.7221 50.8769ZM77.4663 50.8361L77.6086 50.6955L77.6076 50.6946L77.4663 50.8361ZM82.1621 62.1752L82.3621 62.177V62.1752H82.1621ZM59.0504 55.2002L59.1918 55.3417L59.0504 55.2002ZM56.1921 62.1342H56.3921L56.3921 62.131L56.1921 62.1342ZM59.0913 69.1905L59.2326 69.049L59.2326 69.049L59.0913 69.1905ZM76.0371 62.175L76.2371 62.1765V62.175H76.0371ZM73.1379 55.1595L72.9966 55.301L72.9966 55.301L73.1379 55.1595ZM89.022 52.3491C87.0906 52.3491 85.547 50.8069 85.547 48.8782H85.147C85.147 51.0283 86.8701 52.7491 89.022 52.7491V52.3491ZM92.5378 48.8782C92.5378 50.8041 90.9563 52.3491 89.022 52.3491V52.7491C91.171 52.7491 92.9378 51.0311 92.9378 48.8782H92.5378ZM89.022 45.3665C90.9534 45.3665 92.5378 46.9495 92.5378 48.8782H92.9378C92.9378 46.7281 91.1739 44.9665 89.022 44.9665V45.3665ZM85.547 48.8782C85.547 46.9466 87.0934 45.3665 89.022 45.3665V44.9665C86.8672 44.9665 85.147 46.731 85.147 48.8782H85.547ZM66.1146 78.4048C70.58 78.4048 74.6318 76.5874 77.5668 73.6557L77.2841 73.3727C74.4208 76.2329 70.4693 78.0048 66.1146 78.0048V78.4048ZM54.6226 73.6567C57.7217 76.7111 61.7735 78.4048 66.1146 78.4048V78.0048C61.8808 78.0048 57.9292 76.354 54.9034 73.3718L54.6226 73.6567ZM49.8671 62.1752C49.8671 66.5117 51.5629 70.5591 54.6207 73.6548L54.9053 73.3737C51.9197 70.3512 50.2671 66.4041 50.2671 62.1752H49.8671ZM54.5798 50.7363C51.5223 53.8318 49.8258 57.8797 49.8671 62.1771L50.2671 62.1732C50.2268 57.9867 51.8787 54.0402 54.8644 51.0174L54.5798 50.7363ZM66.1146 45.9455C61.7739 45.9455 57.6806 47.639 54.5808 50.7354L54.8635 51.0184C57.8887 47.9966 61.8804 46.3455 66.1146 46.3455V45.9455ZM77.6076 50.6946C74.5484 47.6387 70.455 45.9455 66.1146 45.9455V46.3455C70.3493 46.3455 74.3409 47.9968 77.325 50.9776L77.6076 50.6946ZM82.3621 62.1752C82.3621 57.8797 80.6666 53.7914 77.6086 50.6955L77.324 50.9766C80.3093 53.9989 81.9621 57.9867 81.9621 62.1752H82.3621ZM77.5668 73.6557C80.502 70.7238 82.3208 66.6768 82.3621 62.177L81.9621 62.1733C81.9218 66.5653 80.1472 70.5128 77.2841 73.3727L77.5668 73.6557ZM59.1918 55.3417C61.0735 53.4621 63.5135 52.4635 66.1146 52.4635V52.0635C63.4074 52.0635 60.8657 53.1043 58.9091 55.0587L59.1918 55.3417ZM56.3921 62.131C56.3521 59.6172 57.3506 57.1808 59.1918 55.3417L58.9091 55.0587C56.9936 56.9721 55.9504 59.512 55.9921 62.1374L56.3921 62.131ZM56.3921 62.175V62.1342H55.9921V62.175H56.3921ZM59.2326 69.049C57.3922 67.2107 56.3921 64.7736 56.3921 62.175H55.9921C55.9921 64.8788 57.0337 67.4179 58.9499 69.332L59.2326 69.049ZM66.1146 71.8865C63.5129 71.8865 61.073 70.8874 59.2326 69.049L58.9499 69.332C60.8662 71.2461 63.408 72.2865 66.1146 72.2865V71.8865ZM75.8371 62.1735C75.7971 67.531 71.4747 71.8865 66.1146 71.8865V72.2865C71.6979 72.2865 76.1955 67.7502 76.2371 62.1765L75.8371 62.1735ZM72.9966 55.301C74.837 57.1393 75.8371 59.5763 75.8371 62.175H76.2371C76.2371 59.4712 75.1955 56.9321 73.2793 55.018L72.9966 55.301ZM66.1146 52.4635C68.7163 52.4635 71.1562 53.4626 72.9966 55.301L73.2793 55.018C71.363 53.1038 68.8212 52.0635 66.1146 52.0635V52.4635Z" fill="url(#paint3_linear_256_7262)" fill-opacity="0.5" mask="url(#path-5-inside-1_256_7262)"/>
</g>
<path d="M99.6169 0H90.3524C90.1411 0 89.9526 0.132836 89.8815 0.331833L85.2386 13.3318C85.1223 13.6575 85.3637 14 85.7095 14H91.7861C92.1331 14 92.3746 14.3448 92.256 14.6709L89.3383 22.6947C89.1522 23.2064 89.8022 23.6048 90.1737 23.2067L101.715 10.8412C102.013 10.5215 101.787 10 101.349 10H95.3831C94.9944 10 94.7544 9.57601 94.9543 9.24275L100.046 0.757248C100.246 0.423986 100.006 0 99.6169 0Z" fill="url(#paint4_linear_256_7262)"/>
<defs>
<filter id="filter0_f_256_7262" x="0.386719" y="0.978516" width="85.3711" height="79.0986" filterUnits="userSpaceOnUse" color-interpolation-filters="sRGB">
<feFlood flood-opacity="0" result="BackgroundImageFix"/>
<feBlend mode="normal" in="SourceGraphic" in2="BackgroundImageFix" result="shape"/>
<feGaussianBlur stdDeviation="8.5" result="effect1_foregroundBlur_256_7262"/>
</filter>
<filter id="filter1_b_256_7262" x="9.28125" y="4" width="113.667" height="105.5" filterUnits="userSpaceOnUse" color-interpolation-filters="sRGB">
<feFlood flood-opacity="0" result="BackgroundImageFix"/>
<feGaussianBlur in="BackgroundImageFix" stdDeviation="7.5"/>
<feComposite in2="SourceAlpha" operator="in" result="effect1_backgroundBlur_256_7262"/>
<feBlend mode="normal" in="SourceGraphic" in2="effect1_backgroundBlur_256_7262" result="shape"/>
</filter>
<filter id="filter2_bd_256_7262" x="35.0664" y="30.1665" width="72.6719" height="63.0386" filterUnits="userSpaceOnUse" color-interpolation-filters="sRGB">
<feFlood flood-opacity="0" result="BackgroundImageFix"/>
<feGaussianBlur in="BackgroundImageFix" stdDeviation="7.5"/>
<feComposite in2="SourceAlpha" operator="in" result="effect1_backgroundBlur_256_7262"/>
<feColorMatrix in="SourceAlpha" type="matrix" values="0 0 0 0 0 0 0 0 0 0 0 0 0 0 0 0 0 0 127 0" result="hardAlpha"/>
<feOffset dx="5" dy="5"/>
<feGaussianBlur stdDeviation="5"/>
<feColorMatrix type="matrix" values="0 0 0 0 1 0 0 0 0 1 0 0 0 0 1 0 0 0 0.5 0"/>
<feBlend mode="normal" in2="effect1_backgroundBlur_256_7262" result="effect2_dropShadow_256_7262"/>
<feBlend mode="normal" in="SourceGraphic" in2="effect2_dropShadow_256_7262" result="shape"/>
</filter>
<linearGradient id="paint0_linear_256_7262" x1="45.3773" y1="41.9548" x2="4.88921" y2="85.9751" gradientUnits="userSpaceOnUse">
<stop stop-color="#FEFEFE"/>
<stop offset="1" stop-color="#153860"/>
</linearGradient>
<linearGradient id="paint1_linear_256_7262" x1="38.2813" y1="28.5628" x2="103.311" y2="97.1121" gradientUnits="userSpaceOnUse">
<stop stop-color="white" stop-opacity="0.25"/>
<stop offset="1" stop-color="white" stop-opacity="0.15"/>
</linearGradient>
<linearGradient id="paint2_linear_256_7262" x1="89.7125" y1="51.1326" x2="42.2142" y2="53.1328" gradientUnits="userSpaceOnUse">
<stop stop-color="white"/>
<stop offset="1" stop-color="white" stop-opacity="0.2"/>
</linearGradient>
<linearGradient id="paint3_linear_256_7262" x1="90.9095" y1="62.3845" x2="49.4714" y2="64.6141" gradientUnits="userSpaceOnUse">
<stop stop-color="white"/>
<stop offset="1" stop-color="white" stop-opacity="0"/>
</linearGradient>
<linearGradient id="paint4_linear_256_7262" x1="95.0383" y1="14.1741" x2="77.9997" y2="19.9733" gradientUnits="userSpaceOnUse">
<stop stop-color="#153860"/>
<stop offset="1" stop-color="white"/>
</linearGradient>
</defs>
</svg>
