<svg width="107" height="102" viewBox="0 0 107 102" fill="none" xmlns="http://www.w3.org/2000/svg">
<path d="M89.5906 12.1165L60.86 4.4182C50.4387 1.62582 42.7361 6.10193 39.9345 16.5575L30.446 51.9693C27.5985 62.5963 32.0679 70.1869 42.4891 72.9793L71.2197 80.6776C81.8089 83.515 89.3034 79.1301 92.1509 68.5031L101.639 33.0913C104.441 22.6357 100.18 14.9539 89.5906 12.1165Z" fill="url(#paint0_linear_538_7200)"/>
<g opacity="0.5" filter="url(#filter0_f_538_7200)">
<path d="M82.0838 21.8137L62.5095 16.5688C55.4093 14.6663 50.1614 17.7159 48.2527 24.8394L41.7881 48.9658C39.848 56.206 42.8931 61.3776 49.9932 63.2801L69.5676 68.525C76.7821 70.4581 81.8882 67.4707 83.8283 60.2304L90.2929 36.104C92.2016 28.9805 89.2984 23.7468 82.0838 21.8137Z" fill="#153860"/>
</g>
<g filter="url(#filter1_b_538_7200)">
<path d="M60.9025 18.8267H25.5C11.6575 18.8267 2.3475 28.545 2.3475 43V76.3608C2.3475 90.775 11.6575 100.493 25.5 100.493H60.9025C74.745 100.493 84.0142 90.775 84.0142 76.3608V43C84.0142 28.545 74.745 18.8267 60.9025 18.8267Z" fill="#153860" fill-opacity="0.35"/>
<path d="M60.9025 18.3267H25.5C18.4574 18.3267 12.5337 20.8016 8.37172 25.1468C4.21153 29.4902 1.8475 35.6641 1.8475 43V76.3608C1.8475 83.6767 4.21175 89.8404 8.37193 94.1785C12.5339 98.5184 18.4574 100.993 25.5 100.993H60.9025C67.9452 100.993 73.8588 98.5183 78.0106 94.178C82.1605 89.8397 84.5142 83.676 84.5142 76.3608V43C84.5142 35.6647 82.1607 29.4909 78.0108 25.1473C73.8589 20.8017 67.9452 18.3267 60.9025 18.3267Z" stroke="url(#paint1_linear_538_7200)" stroke-linecap="round" stroke-linejoin="round"/>
</g>
<g filter="url(#filter2_bd_538_7200)">
<path d="M16.6807 46.8798C15.7782 46.2274 15.7782 45.1699 16.6506 44.495C17.1018 44.1575 17.6734 44 18.275 44C18.8466 44 19.4182 44.1575 19.8393 44.495L30.3382 52.302C30.7593 52.6169 31 53.0444 31 53.4944C31 53.9443 30.7593 54.3718 30.3382 54.6868L19.8393 62.4938C18.9669 63.1687 17.5531 63.1687 16.6506 62.4938C15.7782 61.8413 15.7782 60.7614 16.6807 60.1089L25.555 53.4944L16.6807 46.8798Z" fill="url(#paint2_linear_538_7200)"/>
<path d="M16.7404 46.7996L16.7404 46.7996L25.6148 53.4142L25.7224 53.4944L25.6148 53.5746L16.7404 60.1891L16.7393 60.19C16.3098 60.5005 16.1035 60.9055 16.1 61.3022C16.0966 61.699 16.296 62.1037 16.7105 62.4137C17.5781 63.0626 18.9424 63.0613 19.7782 62.4147L19.7797 62.4135L19.7797 62.4135L30.2783 54.6067L16.7404 46.7996ZM16.7404 46.7996L16.7393 46.7988M16.7404 46.7996L16.7393 46.7988M16.7393 46.7988C16.3093 46.4879 16.1035 46.0883 16.1 45.695C16.0966 45.3014 16.2956 44.8963 16.7111 44.5746M16.7393 46.7988L16.7111 44.5746M16.7111 44.5746C17.1415 44.2529 17.6905 44.1 18.275 44.1C18.8301 44.1 19.3777 44.2532 19.7768 44.573L19.7768 44.5731L19.7797 44.5752L30.2783 52.382L16.7111 44.5746ZM30.9 53.4944C30.9 53.0823 30.6798 52.6824 30.2785 52.3822L30.9 53.4944ZM30.9 53.4944C30.9 53.9065 30.6798 54.3064 30.2785 54.6066L30.9 53.4944Z" stroke="url(#paint3_linear_538_7200)" stroke-opacity="0.5" stroke-width="0.2"/>
</g>
<g filter="url(#filter3_bd_538_7200)">
<path d="M60.5285 71.9981H32.3177C31.0377 71.9981 30 71.1031 30 69.9991C30 68.895 31.0377 68 32.3177 68H60.7528C61.4431 68.0067 62.0894 68.2934 62.4973 68.7738C62.8519 69.1313 63.0307 69.594 62.9957 70.0635C62.9763 70.5977 62.7097 71.1029 62.2555 71.4664C61.8013 71.8299 61.1973 72.0214 60.5783 71.9981H60.5285Z" fill="url(#paint4_linear_538_7200)"/>
<path d="M62.3448 68.9033L62.3498 68.9092L62.3553 68.9147C62.6723 69.2343 62.8266 69.6414 62.7962 70.0487L62.7961 70.0487L62.7958 70.0563C62.7787 70.5267 62.5439 70.9795 62.1306 71.3102C61.7164 71.6417 61.1602 71.8198 60.5858 71.7982L60.5858 71.7981H60.5783H60.5285H32.3177C31.1193 71.7981 30.2 70.9659 30.2 69.9991C30.2 69.0322 31.1193 68.2 32.3177 68.2H60.7518C61.3899 68.2065 61.9785 68.4719 62.3448 68.9033Z" stroke="url(#paint5_linear_538_7200)" stroke-width="0.4"/>
</g>
<defs>
<filter id="filter0_f_538_7200" x="27.2148" y="2.01416" width="77.6494" height="81.0854" filterUnits="userSpaceOnUse" color-interpolation-filters="sRGB">
<feFlood flood-opacity="0" result="BackgroundImageFix"/>
<feBlend mode="normal" in="SourceGraphic" in2="BackgroundImageFix" result="shape"/>
<feGaussianBlur stdDeviation="7" result="effect1_foregroundBlur_538_7200"/>
</filter>
<filter id="filter1_b_538_7200" x="-22.6523" y="-6.17334" width="131.667" height="131.667" filterUnits="userSpaceOnUse" color-interpolation-filters="sRGB">
<feFlood flood-opacity="0" result="BackgroundImageFix"/>
<feGaussianBlur in="BackgroundImageFix" stdDeviation="12"/>
<feComposite in2="SourceAlpha" operator="in" result="effect1_backgroundBlur_538_7200"/>
<feBlend mode="normal" in="SourceGraphic" in2="effect1_backgroundBlur_538_7200" result="shape"/>
</filter>
<filter id="filter2_bd_538_7200" x="1" y="29" width="45" height="49" filterUnits="userSpaceOnUse" color-interpolation-filters="sRGB">
<feFlood flood-opacity="0" result="BackgroundImageFix"/>
<feGaussianBlur in="BackgroundImageFix" stdDeviation="7.5"/>
<feComposite in2="SourceAlpha" operator="in" result="effect1_backgroundBlur_538_7200"/>
<feColorMatrix in="SourceAlpha" type="matrix" values="0 0 0 0 0 0 0 0 0 0 0 0 0 0 0 0 0 0 127 0" result="hardAlpha"/>
<feOffset dx="5" dy="5"/>
<feGaussianBlur stdDeviation="5"/>
<feColorMatrix type="matrix" values="0 0 0 0 1 0 0 0 0 1 0 0 0 0 1 0 0 0 0.5 0"/>
<feBlend mode="normal" in2="effect1_backgroundBlur_538_7200" result="effect2_dropShadow_538_7200"/>
<feBlend mode="normal" in="SourceGraphic" in2="effect2_dropShadow_538_7200" result="shape"/>
</filter>
<filter id="filter3_bd_538_7200" x="15" y="53" width="63" height="34" filterUnits="userSpaceOnUse" color-interpolation-filters="sRGB">
<feFlood flood-opacity="0" result="BackgroundImageFix"/>
<feGaussianBlur in="BackgroundImageFix" stdDeviation="7.5"/>
<feComposite in2="SourceAlpha" operator="in" result="effect1_backgroundBlur_538_7200"/>
<feColorMatrix in="SourceAlpha" type="matrix" values="0 0 0 0 0 0 0 0 0 0 0 0 0 0 0 0 0 0 127 0" result="hardAlpha"/>
<feOffset dx="5" dy="5"/>
<feGaussianBlur stdDeviation="5"/>
<feColorMatrix type="matrix" values="0 0 0 0 1 0 0 0 0 1 0 0 0 0 1 0 0 0 0.5 0"/>
<feBlend mode="normal" in2="effect1_backgroundBlur_538_7200" result="effect2_dropShadow_538_7200"/>
<feBlend mode="normal" in="SourceGraphic" in2="effect2_dropShadow_538_7200" result="shape"/>
</filter>
<linearGradient id="paint0_linear_538_7200" x1="106.076" y1="16.5338" x2="43.4204" y2="54.8808" gradientUnits="userSpaceOnUse">
<stop stop-color="white" stop-opacity="0"/>
<stop offset="1" stop-color="#153860"/>
</linearGradient>
<linearGradient id="paint1_linear_538_7200" x1="15.3477" y1="28.3409" x2="67.4423" y2="92.8614" gradientUnits="userSpaceOnUse">
<stop stop-color="white" stop-opacity="0.25"/>
<stop offset="1" stop-color="white" stop-opacity="0"/>
</linearGradient>
<linearGradient id="paint2_linear_538_7200" x1="34.0869" y1="26.9252" x2="17.3716" y2="27.3554" gradientUnits="userSpaceOnUse">
<stop stop-color="white"/>
<stop offset="1" stop-color="white" stop-opacity="0.2"/>
</linearGradient>
<linearGradient id="paint3_linear_538_7200" x1="21.7662" y1="29.8677" x2="34.5034" y2="29.9232" gradientUnits="userSpaceOnUse">
<stop stop-color="white"/>
<stop offset="1" stop-color="white" stop-opacity="0"/>
</linearGradient>
<linearGradient id="paint4_linear_538_7200" x1="60.6603" y1="68.7223" x2="26.3452" y2="77.9526" gradientUnits="userSpaceOnUse">
<stop stop-color="white"/>
<stop offset="1" stop-color="white" stop-opacity="0.2"/>
</linearGradient>
<linearGradient id="paint5_linear_538_7200" x1="35.2531" y1="68.466" x2="35.7591" y2="73.6368" gradientUnits="userSpaceOnUse">
<stop stop-color="white" stop-opacity="0.25"/>
<stop offset="1" stop-color="white" stop-opacity="0"/>
</linearGradient>
</defs>
</svg>
