<svg width="112" height="80" viewBox="0 0 112 80" fill="none" xmlns="http://www.w3.org/2000/svg">
<path d="M71.591 43.0083L39.1671 10.5282C35.754 7.04493 30.0832 6.94758 26.5582 10.3529C25.3295 11.4906 24.4871 12.9742 24.0907 14.5388L12.1786 59.2189C11.5458 64.0417 15.0188 68.4791 19.91 69.0763C20.8817 69.1717 21.8829 69.133 22.842 68.9375L67.4101 56.9955C69.661 56.263 71.4947 54.7045 72.5954 52.602C73.6945 50.4934 73.8966 48.0818 73.1686 45.8517C72.8482 44.8995 72.3853 44.0243 71.591 43.0083Z" fill="url(#paint0_linear_34_63980)"/>
<g filter="url(#filter0_f_34_63980)">
<path d="M58.9746 45.819L40.3852 27.1973C38.4284 25.2003 35.1772 25.1444 33.1562 27.0968C32.4517 27.7491 31.9688 28.5997 31.7415 29.4967L24.912 55.1129C24.5492 57.878 26.5404 60.422 29.3446 60.7645C29.9017 60.8191 30.4757 60.797 31.0256 60.6848L56.5776 53.8382C57.8681 53.4182 58.9195 52.5247 59.5505 51.3193C60.1806 50.1104 60.2965 48.7278 59.8791 47.4492C59.6954 46.9033 59.43 46.4015 58.9746 45.819Z" fill="#153860"/>
</g>
<g filter="url(#filter1_b_34_63980)">
<path d="M109.895 58.7172L80.2144 7.20543C77.1116 1.70264 70.0486 -0.320439 64.4962 2.75869C62.5774 3.77024 61.026 5.3442 60.0053 7.16902L30.1203 59.0813C27.7116 64.9038 30.5694 71.6204 36.4893 74.0077C37.6732 74.4527 38.9389 74.74 40.2045 74.8169H99.9744C103.036 74.6551 105.853 73.3198 107.936 71.058C110.018 68.7881 111.079 65.8385 110.916 62.8038C110.834 61.505 110.548 60.2547 109.895 58.7172Z" fill="#153860" fill-opacity="0.35"/>
<path d="M110.355 58.5217C110.348 58.5031 110.339 58.485 110.328 58.4676L80.6499 6.95985C80.6496 6.95925 80.6493 6.95865 80.6489 6.95805C77.4121 1.21979 70.0507 -0.890043 64.2584 2.31887C62.2526 3.37748 60.6349 5.02037 59.5705 6.9222C59.57 6.92311 59.5694 6.92403 59.5689 6.92494L29.687 58.8319C29.6762 58.8507 29.6666 58.8702 29.6583 58.8902C27.1414 64.9741 30.1295 71.9821 36.3023 74.4714L36.3022 74.4715L36.3133 74.4757C37.5398 74.9367 38.8544 75.2358 40.1742 75.316C40.1763 75.3161 40.1784 75.3162 40.1805 75.3163C40.1885 75.3167 40.1965 75.3169 40.2045 75.3169H99.9744C99.9832 75.3169 99.992 75.3167 100.001 75.3162C103.194 75.1474 106.134 73.7536 108.303 71.3967L108.304 71.396C110.476 69.0281 111.586 65.9473 111.415 62.777L111.415 62.7725C111.329 61.412 111.029 60.1064 110.355 58.5217Z" stroke="url(#paint1_linear_34_63980)" stroke-linecap="round" stroke-linejoin="round"/>
</g>
<g filter="url(#filter2_bd_34_63980)">
<mask id="path-5-inside-1_34_63980" fill="white">
<path fill-rule="evenodd" clip-rule="evenodd" d="M70.0908 44.7185C72.0504 44.7185 73.6427 43.0959 73.6427 41.1538V29.7072C73.6427 27.761 72.0504 26.187 70.0908 26.187C68.1311 26.187 66.498 27.761 66.498 29.7072V41.1538C66.498 43.0959 68.1311 44.7185 70.0908 44.7185ZM66.498 54.9939C66.498 56.932 68.1311 58.5545 70.0908 58.5545C72.0504 58.5545 73.6427 56.932 73.6427 54.9494C73.6427 53.0112 72.0504 51.4292 70.0908 51.4292C68.1311 51.4292 66.498 53.0477 66.498 54.9939Z"/>
</mask>
<path fill-rule="evenodd" clip-rule="evenodd" d="M70.0908 44.7185C72.0504 44.7185 73.6427 43.0959 73.6427 41.1538V29.7072C73.6427 27.761 72.0504 26.187 70.0908 26.187C68.1311 26.187 66.498 27.761 66.498 29.7072V41.1538C66.498 43.0959 68.1311 44.7185 70.0908 44.7185ZM66.498 54.9939C66.498 56.932 68.1311 58.5545 70.0908 58.5545C72.0504 58.5545 73.6427 56.932 73.6427 54.9494C73.6427 53.0112 72.0504 51.4292 70.0908 51.4292C68.1311 51.4292 66.498 53.0477 66.498 54.9939Z" fill="url(#paint2_linear_34_63980)"/>
<path d="M73.2427 41.1538C73.2427 42.8782 71.8264 44.3185 70.0908 44.3185V45.1185C72.2745 45.1185 74.0427 43.3137 74.0427 41.1538H73.2427ZM73.2427 29.7072V41.1538H74.0427V29.7072H73.2427ZM70.0908 26.587C71.8332 26.587 73.2427 27.9856 73.2427 29.7072H74.0427C74.0427 27.5364 72.2677 25.787 70.0908 25.787V26.587ZM66.898 29.7072C66.898 27.9914 68.3423 26.587 70.0908 26.587V25.787C67.9199 25.787 66.098 27.5305 66.098 29.7072H66.898ZM66.898 41.1538V29.7072H66.098V41.1538H66.898ZM70.0908 44.3185C68.3492 44.3185 66.898 42.8722 66.898 41.1538H66.098C66.098 43.3197 67.913 45.1185 70.0908 45.1185V44.3185ZM70.0908 58.1545C68.3489 58.1545 66.898 56.708 66.898 54.9939H66.098C66.098 57.156 67.9133 58.9545 70.0908 58.9545V58.1545ZM73.2427 54.9494C73.2427 56.7172 71.8235 58.1545 70.0908 58.1545V58.9545C72.2774 58.9545 74.0427 57.1468 74.0427 54.9494H73.2427ZM70.0908 51.8292C71.8326 51.8292 73.2427 53.2352 73.2427 54.9494H74.0427C74.0427 52.7873 72.2683 51.0292 70.0908 51.0292V51.8292ZM66.898 54.9939C66.898 53.2717 68.3489 51.8292 70.0908 51.8292V51.0292C67.9133 51.0292 66.098 52.8237 66.098 54.9939H66.898Z" fill="url(#paint3_linear_34_63980)" mask="url(#path-5-inside-1_34_63980)"/>
</g>
<defs>
<filter id="filter0_f_34_63980" x="5.86914" y="6.66553" width="73.2559" height="73.1274" filterUnits="userSpaceOnUse" color-interpolation-filters="sRGB">
<feFlood flood-opacity="0" result="BackgroundImageFix"/>
<feBlend mode="normal" in="SourceGraphic" in2="BackgroundImageFix" result="shape"/>
<feGaussianBlur stdDeviation="9.5" result="effect1_foregroundBlur_34_63980"/>
</filter>
<filter id="filter1_b_34_63980" x="4.26465" y="-23.6836" width="131.668" height="123.5" filterUnits="userSpaceOnUse" color-interpolation-filters="sRGB">
<feFlood flood-opacity="0" result="BackgroundImageFix"/>
<feGaussianBlur in="BackgroundImageFix" stdDeviation="12"/>
<feComposite in2="SourceAlpha" operator="in" result="effect1_backgroundBlur_34_63980"/>
<feBlend mode="normal" in="SourceGraphic" in2="effect1_backgroundBlur_34_63980" result="shape"/>
</filter>
<filter id="filter2_bd_34_63980" x="51.498" y="11.187" width="37.1445" height="62.3677" filterUnits="userSpaceOnUse" color-interpolation-filters="sRGB">
<feFlood flood-opacity="0" result="BackgroundImageFix"/>
<feGaussianBlur in="BackgroundImageFix" stdDeviation="7.5"/>
<feComposite in2="SourceAlpha" operator="in" result="effect1_backgroundBlur_34_63980"/>
<feColorMatrix in="SourceAlpha" type="matrix" values="0 0 0 0 0 0 0 0 0 0 0 0 0 0 0 0 0 0 127 0" result="hardAlpha"/>
<feOffset dx="5" dy="5"/>
<feGaussianBlur stdDeviation="5"/>
<feColorMatrix type="matrix" values="0 0 0 0 1 0 0 0 0 1 0 0 0 0 1 0 0 0 1 0"/>
<feBlend mode="normal" in2="effect1_backgroundBlur_34_63980" result="effect2_dropShadow_34_63980"/>
<feBlend mode="normal" in="SourceGraphic" in2="effect2_dropShadow_34_63980" result="shape"/>
</filter>
<linearGradient id="paint0_linear_34_63980" x1="43.257" y1="38.0303" x2="-0.541218" y2="79.4193" gradientUnits="userSpaceOnUse">
<stop stop-color="white"/>
<stop offset="1" stop-color="#153860"/>
</linearGradient>
<linearGradient id="paint1_linear_34_63980" x1="42.2656" y1="9.87974" x2="87.8828" y2="72.6552" gradientUnits="userSpaceOnUse">
<stop stop-color="white" stop-opacity="0.25"/>
<stop offset="1" stop-color="white" stop-opacity="0"/>
</linearGradient>
<linearGradient id="paint2_linear_34_63980" x1="70.0712" y1="28.0128" x2="63.5112" y2="27.4053" gradientUnits="userSpaceOnUse">
<stop stop-color="white" stop-opacity="0.75"/>
<stop offset="1" stop-color="white" stop-opacity="0.2"/>
</linearGradient>
<linearGradient id="paint3_linear_34_63980" x1="67.6354" y1="29.9579" x2="78.3807" y2="32.8955" gradientUnits="userSpaceOnUse">
<stop stop-color="white" stop-opacity="0.25"/>
<stop offset="1" stop-color="white" stop-opacity="0"/>
</linearGradient>
</defs>
</svg>
