<svg width="101" height="96" viewBox="0 0 101 96" fill="none" xmlns="http://www.w3.org/2000/svg">
<g filter="url(#filter0_b_349_7169)">
<path d="M34.7321 5C18.32 5 5 18.3229 5 34.7321C5 51.1471 18.32 64.4641 34.7321 64.4641C51.1739 64.4641 64.4641 51.1471 64.4641 34.7321C64.4641 18.3229 51.1739 5 34.7321 5V5Z" fill="url(#paint0_linear_349_7169)"/>
</g>
<g opacity="0.5" filter="url(#filter1_f_349_7169)">
<path d="M34.7321 20.209C26.7148 20.209 20.208 26.7172 20.208 34.733C20.208 42.7518 26.7148 49.2571 34.7321 49.2571C42.7639 49.2571 49.2561 42.7518 49.2561 34.733C49.2561 26.7172 42.7639 20.209 34.7321 20.209V20.209Z" fill="#153860"/>
</g>
<g filter="url(#filter2_b_349_7169)">
<mask id="path-3-outside-1_349_7169" maskUnits="userSpaceOnUse" x="8.4043" y="26.0234" width="93" height="70" fill="black">
<rect fill="white" x="8.4043" y="26.0234" width="93" height="70"/>
<path fill-rule="evenodd" clip-rule="evenodd" d="M99.4374 59.3883C94.7243 49.2514 88.1612 41.15 80.4529 35.6134C72.7446 30.036 63.8911 27.0234 54.553 27.0234H54.5089C35.8769 27.0234 19.0947 39.1145 9.66858 59.3883C9.3162 60.1618 9.3162 61.0575 9.66858 61.7903C19.0947 82.0641 35.8769 94.1959 54.5089 94.1959H54.553C73.2291 94.1959 90.0112 82.0641 99.4374 61.7903C99.7898 61.0575 99.7898 60.1618 99.4374 59.3883"/>
</mask>
<path fill-rule="evenodd" clip-rule="evenodd" d="M99.4374 59.3883C94.7243 49.2514 88.1612 41.15 80.4529 35.6134C72.7446 30.036 63.8911 27.0234 54.553 27.0234H54.5089C35.8769 27.0234 19.0947 39.1145 9.66858 59.3883C9.3162 60.1618 9.3162 61.0575 9.66858 61.7903C19.0947 82.0641 35.8769 94.1959 54.5089 94.1959H54.553C73.2291 94.1959 90.0112 82.0641 99.4374 61.7903C99.7898 61.0575 99.7898 60.1618 99.4374 59.3883" fill="#153860" fill-opacity="0.4"/>
<path d="M98.5306 59.8099C98.7635 60.3107 99.3582 60.528 99.859 60.2951C100.36 60.0623 100.577 59.4675 100.344 58.9667L98.5306 59.8099ZM80.4529 35.6134L79.8667 36.4235L79.8696 36.4256L80.4529 35.6134ZM9.66858 59.3883L8.76177 58.9667L8.75857 58.9738L9.66858 59.3883ZM9.66858 61.7903L10.5754 61.3686L10.5698 61.3569L9.66858 61.7903ZM99.4374 61.7903L98.5361 61.3569L98.5306 61.3687L99.4374 61.7903ZM100.347 58.9738C100.118 58.4712 99.5254 58.2494 99.0228 58.4783C98.5202 58.7073 98.2984 59.3003 98.5274 59.8029L100.347 58.9738ZM100.344 58.9667C95.5682 48.6945 88.9015 40.4505 81.0363 34.8012L79.8696 36.4256C87.421 41.8495 93.8805 49.8083 98.5306 59.8099L100.344 58.9667ZM81.0391 34.8032C73.1707 29.11 64.1141 26.0234 54.553 26.0234V28.0234C63.6681 28.0234 72.3186 30.9621 79.8667 36.4235L81.0391 34.8032ZM54.553 26.0234H54.5089V28.0234H54.553V26.0234ZM54.5089 26.0234C35.4015 26.0234 18.3122 38.4257 8.7618 58.9667L10.5754 59.8099C19.8773 39.8032 36.3522 28.0234 54.5089 28.0234V26.0234ZM8.75857 58.9738C8.28961 60.0032 8.27988 61.2099 8.76737 62.2236L10.5698 61.3569C10.3525 60.9051 10.3428 60.3205 10.5786 59.8029L8.75857 58.9738ZM8.7618 62.2119C18.3116 82.7515 35.4003 95.1959 54.5089 95.1959V93.1959C36.3534 93.1959 19.8779 81.3767 10.5754 61.3687L8.7618 62.2119ZM54.5089 95.1959H54.553V93.1959H54.5089V95.1959ZM54.553 95.1959C73.7052 95.1959 90.7942 82.7521 100.344 62.2119L98.5306 61.3687C89.2283 81.3762 72.753 93.1959 54.553 93.1959V95.1959ZM100.339 62.2236C100.826 61.2099 100.816 60.0032 100.347 58.9738L98.5274 59.8029C98.7632 60.3205 98.7535 60.9051 98.5362 61.3569L100.339 62.2236Z" fill="url(#paint1_linear_349_7169)" mask="url(#path-3-outside-1_349_7169)"/>
</g>
<g filter="url(#filter3_bd_349_7169)">
<path d="M67.7674 61.186C67.7674 68.442 61.8355 74.3738 54.5796 74.3738C47.2707 74.3738 41.3389 68.442 41.3389 61.186C41.3389 60.2857 41.4448 59.4383 41.6037 58.5909H41.8685C47.7474 58.5909 52.514 53.9301 52.7259 48.1042C53.3085 47.9983 53.944 47.9453 54.5796 47.9453C61.8355 47.9453 67.7674 53.8772 67.7674 61.186Z" fill="url(#paint2_linear_349_7169)"/>
<path d="M67.6674 61.186C67.6674 68.3867 61.7803 74.2738 54.5796 74.2738C47.3257 74.2738 41.4389 68.3865 41.4389 61.186C41.4389 60.3224 41.5372 59.507 41.6868 58.6909H41.8685C47.7745 58.6909 52.5679 54.0301 52.8226 48.1886C53.377 48.0932 53.978 48.0453 54.5796 48.0453C61.78 48.0453 67.6674 53.9321 67.6674 61.186Z" stroke="url(#paint3_linear_349_7169)" stroke-opacity="0.5" stroke-width="0.2"/>
</g>
<defs>
<filter id="filter0_b_349_7169" x="-8" y="-8" width="85.4639" height="85.4644" filterUnits="userSpaceOnUse" color-interpolation-filters="sRGB">
<feFlood flood-opacity="0" result="BackgroundImageFix"/>
<feGaussianBlur in="BackgroundImageFix" stdDeviation="6.5"/>
<feComposite in2="SourceAlpha" operator="in" result="effect1_backgroundBlur_349_7169"/>
<feBlend mode="normal" in="SourceGraphic" in2="effect1_backgroundBlur_349_7169" result="shape"/>
</filter>
<filter id="filter1_f_349_7169" x="0.208008" y="0.208984" width="69.0479" height="69.0483" filterUnits="userSpaceOnUse" color-interpolation-filters="sRGB">
<feFlood flood-opacity="0" result="BackgroundImageFix"/>
<feBlend mode="normal" in="SourceGraphic" in2="BackgroundImageFix" result="shape"/>
<feGaussianBlur stdDeviation="10" result="effect1_foregroundBlur_349_7169"/>
</filter>
<filter id="filter2_b_349_7169" x="-6.5957" y="11.0234" width="122.298" height="99.1724" filterUnits="userSpaceOnUse" color-interpolation-filters="sRGB">
<feFlood flood-opacity="0" result="BackgroundImageFix"/>
<feGaussianBlur in="BackgroundImageFix" stdDeviation="7.5"/>
<feComposite in2="SourceAlpha" operator="in" result="effect1_backgroundBlur_349_7169"/>
<feBlend mode="normal" in="SourceGraphic" in2="effect1_backgroundBlur_349_7169" result="shape"/>
</filter>
<filter id="filter3_bd_349_7169" x="26.3389" y="32.9453" width="56.4287" height="56.4287" filterUnits="userSpaceOnUse" color-interpolation-filters="sRGB">
<feFlood flood-opacity="0" result="BackgroundImageFix"/>
<feGaussianBlur in="BackgroundImageFix" stdDeviation="7.5"/>
<feComposite in2="SourceAlpha" operator="in" result="effect1_backgroundBlur_349_7169"/>
<feColorMatrix in="SourceAlpha" type="matrix" values="0 0 0 0 0 0 0 0 0 0 0 0 0 0 0 0 0 0 127 0" result="hardAlpha"/>
<feOffset dx="5" dy="5"/>
<feGaussianBlur stdDeviation="5"/>
<feColorMatrix type="matrix" values="0 0 0 0 1 0 0 0 0 1 0 0 0 0 1 0 0 0 0.5 0"/>
<feBlend mode="normal" in2="effect1_backgroundBlur_349_7169" result="effect2_dropShadow_349_7169"/>
<feBlend mode="normal" in="SourceGraphic" in2="effect2_dropShadow_349_7169" result="shape"/>
</filter>
<linearGradient id="paint0_linear_349_7169" x1="39.1098" y1="38.714" x2="-13.1407" y2="64.1194" gradientUnits="userSpaceOnUse">
<stop stop-color="white"/>
<stop offset="1" stop-color="#153860"/>
</linearGradient>
<linearGradient id="paint1_linear_349_7169" x1="23.7782" y1="34.8491" x2="62.4737" y2="99.2733" gradientUnits="userSpaceOnUse">
<stop stop-color="white" stop-opacity="0.25"/>
<stop offset="1" stop-color="white" stop-opacity="0"/>
</linearGradient>
<linearGradient id="paint2_linear_349_7169" x1="65.8936" y1="52.7178" x2="36.4548" y2="53.6776" gradientUnits="userSpaceOnUse">
<stop stop-color="white"/>
<stop offset="1" stop-color="white" stop-opacity="0.2"/>
</linearGradient>
<linearGradient id="paint3_linear_349_7169" x1="66.635" y1="61.7186" x2="40.9406" y2="62.789" gradientUnits="userSpaceOnUse">
<stop stop-color="white"/>
<stop offset="1" stop-color="white" stop-opacity="0"/>
</linearGradient>
</defs>
</svg>
