<svg width="94" height="84" viewBox="0 0 94 84" fill="none" xmlns="http://www.w3.org/2000/svg">
<path d="M29.0853 25C16.4477 25 6 35.1053 6 47.6078C6 53.908 8.28852 59.757 12.0625 64.7145C16.1874 70.183 21.3153 74.9475 27.1202 78.6874C28.5701 79.617 29.7623 79.5517 31.0833 78.6874C36.8554 74.9475 41.9833 70.183 46.1437 64.7145C49.915 59.757 52.2063 53.908 52.2063 47.6078C52.2063 35.1053 41.7585 25 29.0853 25Z" fill="#153860"/>
<g opacity="0.5" filter="url(#filter0_f_349_7194)">
<path d="M29.1417 37.6914C22.3041 37.6914 16.6514 43.0823 16.6514 49.7522C16.6514 53.1132 17.8896 56.2335 19.9315 58.8782C22.1633 61.7955 24.9377 64.3373 28.0785 66.3324C28.8629 66.8283 29.508 66.7935 30.2228 66.3324C33.3457 64.3373 36.1202 61.7955 38.3712 58.8782C40.4117 56.2335 41.6514 53.1132 41.6514 49.7522C41.6514 43.0823 35.9986 37.6914 29.1417 37.6914Z" fill="#ACACAC"/>
</g>
<g filter="url(#filter1_b_349_7194)">
<path d="M57.6816 1C38.6958 1 23 16.1814 23 34.9642C23 44.4291 26.4381 53.2161 32.1079 60.6639C38.3047 68.8794 46.0085 76.0372 54.7293 81.6557C56.9075 83.0522 58.6986 82.9542 60.6832 81.6557C69.3546 76.0372 77.0585 68.8794 83.3088 60.6639C88.9745 53.2161 92.4167 44.4291 92.4167 34.9642C92.4167 16.1814 76.7208 1 57.6816 1Z" fill="#153860" fill-opacity="0.35"/>
<path d="M54.4585 82.0761L54.4595 82.0767C55.6057 82.8115 56.6931 83.1801 57.7852 83.1663C58.876 83.1525 59.9116 82.7579 60.9559 82.0749C69.6757 76.4249 77.4218 69.2275 83.7067 60.9667L83.7067 60.9667C89.4281 53.4457 92.9167 44.5546 92.9167 34.9642C92.9167 15.8932 76.9847 0.5 57.6816 0.5C38.4314 0.5 22.5 15.8937 22.5 34.9642C22.5 44.5541 25.9841 53.4449 31.7093 60.9658C37.9416 69.228 45.6886 76.426 54.4585 82.0761Z" stroke="url(#paint0_linear_349_7194)" stroke-linecap="round" stroke-linejoin="round"/>
</g>
<g filter="url(#filter2_bd_349_7194)">
<path d="M57.4301 47.26C51.1345 47.26 46 42.3112 46 36.0189C46 29.7757 51.1345 24.5859 57.4301 24.5859C63.7299 24.5859 68.9138 29.7757 68.9138 36.0189C68.9138 42.3112 63.7299 47.26 57.4301 47.26Z" fill="url(#paint1_linear_349_7194)"/>
<path d="M57.4301 47.16C51.1876 47.16 46.1 42.2538 46.1 36.0189C46.1 29.8306 51.1901 24.6859 57.4301 24.6859C63.6749 24.6859 68.8138 29.8312 68.8138 36.0189C68.8138 42.2532 63.6774 47.16 57.4301 47.16Z" stroke="url(#paint2_linear_349_7194)" stroke-opacity="0.5" stroke-width="0.2"/>
</g>
<defs>
<filter id="filter0_f_349_7194" x="0.651367" y="21.6914" width="57" height="61" filterUnits="userSpaceOnUse" color-interpolation-filters="sRGB">
<feFlood flood-opacity="0" result="BackgroundImageFix"/>
<feBlend mode="normal" in="SourceGraphic" in2="BackgroundImageFix" result="shape"/>
<feGaussianBlur stdDeviation="8" result="effect1_foregroundBlur_349_7194"/>
</filter>
<filter id="filter1_b_349_7194" x="-2" y="-24" width="119.417" height="131.667" filterUnits="userSpaceOnUse" color-interpolation-filters="sRGB">
<feFlood flood-opacity="0" result="BackgroundImageFix"/>
<feGaussianBlur in="BackgroundImageFix" stdDeviation="12"/>
<feComposite in2="SourceAlpha" operator="in" result="effect1_backgroundBlur_349_7194"/>
<feBlend mode="normal" in="SourceGraphic" in2="effect1_backgroundBlur_349_7194" result="shape"/>
</filter>
<filter id="filter2_bd_349_7194" x="31" y="9.58594" width="52.9141" height="52.6743" filterUnits="userSpaceOnUse" color-interpolation-filters="sRGB">
<feFlood flood-opacity="0" result="BackgroundImageFix"/>
<feGaussianBlur in="BackgroundImageFix" stdDeviation="7.5"/>
<feComposite in2="SourceAlpha" operator="in" result="effect1_backgroundBlur_349_7194"/>
<feColorMatrix in="SourceAlpha" type="matrix" values="0 0 0 0 0 0 0 0 0 0 0 0 0 0 0 0 0 0 127 0" result="hardAlpha"/>
<feOffset dx="5" dy="5"/>
<feGaussianBlur stdDeviation="5"/>
<feColorMatrix type="matrix" values="0 0 0 0 1 0 0 0 0 1 0 0 0 0 1 0 0 0 0.5 0"/>
<feBlend mode="normal" in2="effect1_backgroundBlur_349_7194" result="effect2_dropShadow_349_7194"/>
<feBlend mode="normal" in="SourceGraphic" in2="effect2_dropShadow_349_7194" result="shape"/>
</filter>
<linearGradient id="paint0_linear_349_7194" x1="34.05" y1="10.5143" x2="87.2709" y2="66.5423" gradientUnits="userSpaceOnUse">
<stop stop-color="white" stop-opacity="0.25"/>
<stop offset="1" stop-color="white" stop-opacity="0"/>
</linearGradient>
<linearGradient id="paint1_linear_349_7194" x1="67.2892" y1="28.6804" x2="41.766" y2="29.5214" gradientUnits="userSpaceOnUse">
<stop stop-color="white"/>
<stop offset="1" stop-color="white" stop-opacity="0.2"/>
</linearGradient>
<linearGradient id="paint2_linear_349_7194" x1="48.4683" y1="32.192" x2="67.9253" y2="32.3005" gradientUnits="userSpaceOnUse">
<stop stop-color="white"/>
<stop offset="1" stop-color="white" stop-opacity="0"/>
</linearGradient>
</defs>
</svg>
