<svg width="107" height="100" viewBox="0 0 107 100" fill="none" xmlns="http://www.w3.org/2000/svg">
<path d="M48.9722 7.59995L19.3635 19.2413C7.78638 23.7931 3.19566 34.9824 7.94888 47.0718L18.9189 74.973C23.6587 87.0282 34.6407 92.0947 46.2178 87.5429L75.8265 75.9015C87.4037 71.3497 91.9602 60.1739 87.2204 48.1186L76.2504 20.2174C71.4972 8.12807 60.5493 3.04814 48.9722 7.59995" fill="url(#paint0_linear_236_7158)"/>
<g opacity="0.5" filter="url(#filter0_f_236_7158)">
<path d="M51.7512 19.8626L29.5756 28.539C21.5319 31.6862 18.469 37.6599 21.2454 44.756L30.6488 68.7897C33.4707 76.0021 39.7379 78.218 47.7815 75.0708L69.9571 66.3945C78.1304 63.1966 81.0975 57.3677 78.2756 50.1553L68.8722 26.1216C66.0958 19.0255 59.9245 16.6648 51.7512 19.8626Z" fill="#153860"/>
</g>
<g filter="url(#filter1_b_236_7158)">
<mask id="path-3-outside-1_236_7158" maskUnits="userSpaceOnUse" x="30.6123" y="24.3213" width="76" height="76" fill="black">
<rect fill="white" x="30.6123" y="24.3213" width="76" height="76"/>
<path d="M84.2338 25.3213H52.4187C39.9789 25.3213 31.6123 34.0548 31.6123 47.0451V77.0253C31.6123 89.9789 39.9789 98.7124 52.4187 98.7124H84.2338C96.6735 98.7124 105.003 89.9789 105.003 77.0253V47.0451C105.003 34.0548 96.6735 25.3213 84.2338 25.3213"/>
</mask>
<path d="M84.2338 25.3213H52.4187C39.9789 25.3213 31.6123 34.0548 31.6123 47.0451V77.0253C31.6123 89.9789 39.9789 98.7124 52.4187 98.7124H84.2338C96.6735 98.7124 105.003 89.9789 105.003 77.0253V47.0451C105.003 34.0548 96.6735 25.3213 84.2338 25.3213" fill="#153860" fill-opacity="0.35"/>
<path d="M84.2338 26.3213C84.786 26.3213 85.2338 25.8736 85.2338 25.3213C85.2338 24.769 84.786 24.3213 84.2338 24.3213V26.3213ZM84.2338 24.3213C83.6815 24.3213 83.2338 24.769 83.2338 25.3213C83.2338 25.8736 83.6815 26.3213 84.2338 26.3213V24.3213ZM84.2338 24.3213H52.4187V26.3213H84.2338V24.3213ZM52.4187 24.3213C45.956 24.3213 40.4834 26.5954 36.6284 30.6201C32.777 34.6411 30.6123 40.3332 30.6123 47.0451H32.6123C32.6123 40.7667 34.6309 35.5969 38.0727 32.0036C41.511 28.4139 46.4416 26.3213 52.4187 26.3213V24.3213ZM30.6123 47.0451V77.0253H32.6123V47.0451H30.6123ZM30.6123 77.0253C30.6123 83.7196 32.7775 89.4025 36.6288 93.4186C40.4837 97.4383 45.9561 99.7124 52.4187 99.7124V97.7124C46.4415 97.7124 41.5107 95.6198 38.0723 92.0343C34.6304 88.4452 32.6123 83.2846 32.6123 77.0253H30.6123ZM52.4187 99.7124H84.2338V97.7124H52.4187V99.7124ZM84.2338 99.7124C90.6966 99.7124 96.1603 97.4382 100.006 93.4177C103.848 89.4012 106.003 83.7184 106.003 77.0253H104.003C104.003 83.2859 101.994 88.4466 98.5609 92.0352C95.1319 95.6199 90.2107 97.7124 84.2338 97.7124V99.7124ZM106.003 77.0253V47.0451H104.003V77.0253H106.003ZM106.003 47.0451C106.003 40.3344 103.849 34.6424 100.007 30.621C96.1606 26.5956 90.6966 24.3213 84.2338 24.3213V26.3213C90.2107 26.3213 95.1316 28.4138 98.5605 32.0026C101.993 35.5956 104.003 40.7655 104.003 47.0451H106.003Z" fill="url(#paint1_linear_236_7158)" mask="url(#path-3-outside-1_236_7158)"/>
</g>
<g filter="url(#filter2_bd_236_7158)">
<mask id="path-5-inside-2_236_7158" fill="white">
<path fill-rule="evenodd" clip-rule="evenodd" d="M86.5463 71.4159C88.0655 71.4159 89.2985 70.183 89.2985 68.6638V61.8678C89.2985 60.3486 88.0655 59.1156 86.5463 59.1156H65.6592C64.4702 55.2002 60.8667 52.3232 56.566 52.3232C51.3039 52.3232 47.0215 56.6056 47.0215 61.8678C47.0215 67.1336 51.3039 71.4159 56.566 71.4159C60.8667 71.4159 64.4702 68.539 65.6592 64.6199H73.4093V68.6638C73.4093 70.183 74.6422 71.4159 76.1614 71.4159C77.6806 71.4159 78.9136 70.183 78.9136 68.6638V64.6199H83.7941V68.6638C83.7941 70.183 85.0271 71.4159 86.5463 71.4159ZM52.5221 61.8674C52.5221 59.6363 54.3385 57.8235 56.5659 57.8235C58.7934 57.8235 60.6098 59.6363 60.6098 61.8674C60.6098 64.0948 58.7934 65.9075 56.5659 65.9075C54.3385 65.9075 52.5221 64.0948 52.5221 61.8674Z"/>
</mask>
<path fill-rule="evenodd" clip-rule="evenodd" d="M86.5463 71.4159C88.0655 71.4159 89.2985 70.183 89.2985 68.6638V61.8678C89.2985 60.3486 88.0655 59.1156 86.5463 59.1156H65.6592C64.4702 55.2002 60.8667 52.3232 56.566 52.3232C51.3039 52.3232 47.0215 56.6056 47.0215 61.8678C47.0215 67.1336 51.3039 71.4159 56.566 71.4159C60.8667 71.4159 64.4702 68.539 65.6592 64.6199H73.4093V68.6638C73.4093 70.183 74.6422 71.4159 76.1614 71.4159C77.6806 71.4159 78.9136 70.183 78.9136 68.6638V64.6199H83.7941V68.6638C83.7941 70.183 85.0271 71.4159 86.5463 71.4159ZM52.5221 61.8674C52.5221 59.6363 54.3385 57.8235 56.5659 57.8235C58.7934 57.8235 60.6098 59.6363 60.6098 61.8674C60.6098 64.0948 58.7934 65.9075 56.5659 65.9075C54.3385 65.9075 52.5221 64.0948 52.5221 61.8674Z" fill="url(#paint2_linear_236_7158)"/>
<path d="M65.6592 59.1156L65.4678 59.1737L65.5109 59.3156H65.6592V59.1156ZM65.6592 64.6199V64.4199H65.5108L65.4678 64.5619L65.6592 64.6199ZM73.4093 64.6199H73.6093V64.4199H73.4093V64.6199ZM78.9136 64.6199V64.4199H78.7136V64.6199H78.9136ZM83.7941 64.6199H83.9941V64.4199H83.7941V64.6199ZM89.0985 68.6638C89.0985 70.0725 87.955 71.2159 86.5463 71.2159V71.6159C88.1759 71.6159 89.4985 70.2934 89.4985 68.6638H89.0985ZM89.0985 61.8678V68.6638H89.4985V61.8678H89.0985ZM86.5463 59.3156C87.955 59.3156 89.0985 60.459 89.0985 61.8678H89.4985C89.4985 60.2381 88.1759 58.9156 86.5463 58.9156V59.3156ZM65.6592 59.3156H86.5463V58.9156H65.6592V59.3156ZM56.566 52.5232C60.7744 52.5232 64.3032 55.3384 65.4678 59.1737L65.8505 59.0575C64.6373 55.0619 60.959 52.1232 56.566 52.1232V52.5232ZM47.2215 61.8678C47.2215 56.7161 51.4143 52.5232 56.566 52.5232V52.1232C51.1934 52.1232 46.8215 56.4952 46.8215 61.8678H47.2215ZM56.566 71.2159C51.4144 71.2159 47.2215 67.0232 47.2215 61.8678H46.8215C46.8215 67.244 51.1934 71.6159 56.566 71.6159V71.2159ZM65.4678 64.5619C64.3032 68.4008 60.7744 71.2159 56.566 71.2159V71.6159C60.9591 71.6159 64.6373 68.6772 65.8506 64.678L65.4678 64.5619ZM73.4093 64.4199H65.6592V64.8199H73.4093V64.4199ZM73.6093 68.6638V64.6199H73.2093V68.6638H73.6093ZM76.1614 71.2159C74.7527 71.2159 73.6093 70.0725 73.6093 68.6638H73.2093C73.2093 70.2934 74.5318 71.6159 76.1614 71.6159V71.2159ZM78.7136 68.6638C78.7136 70.0725 77.5702 71.2159 76.1614 71.2159V71.6159C77.7911 71.6159 79.1136 70.2934 79.1136 68.6638H78.7136ZM78.7136 64.6199V68.6638H79.1136V64.6199H78.7136ZM83.7941 64.4199H78.9136V64.8199H83.7941V64.4199ZM83.9941 68.6638V64.6199H83.5941V68.6638H83.9941ZM86.5463 71.2159C85.1375 71.2159 83.9941 70.0725 83.9941 68.6638H83.5941C83.5941 70.2934 84.9166 71.6159 86.5463 71.6159V71.2159ZM56.5659 57.6235C54.2282 57.6235 52.3221 59.5257 52.3221 61.8674H52.7221C52.7221 59.7469 54.4489 58.0235 56.5659 58.0235V57.6235ZM60.8098 61.8674C60.8098 59.5257 58.9037 57.6235 56.5659 57.6235V58.0235C58.683 58.0235 60.4098 59.7469 60.4098 61.8674H60.8098ZM56.5659 66.1075C58.9036 66.1075 60.8098 64.2055 60.8098 61.8674H60.4098C60.4098 63.9841 58.6831 65.7075 56.5659 65.7075V66.1075ZM52.3221 61.8674C52.3221 64.2055 54.2283 66.1075 56.5659 66.1075V65.7075C54.4487 65.7075 52.7221 63.9841 52.7221 61.8674H52.3221Z" fill="url(#paint3_linear_236_7158)" fill-opacity="0.5" mask="url(#path-5-inside-2_236_7158)"/>
</g>
<defs>
<filter id="filter0_f_236_7158" x="3.24316" y="1.4624" width="93.0723" height="92.0029" filterUnits="userSpaceOnUse" color-interpolation-filters="sRGB">
<feFlood flood-opacity="0" result="BackgroundImageFix"/>
<feBlend mode="normal" in="SourceGraphic" in2="BackgroundImageFix" result="shape"/>
<feGaussianBlur stdDeviation="8.5" result="effect1_foregroundBlur_236_7158"/>
</filter>
<filter id="filter1_b_236_7158" x="6.6123" y="0.321289" width="123.392" height="123.391" filterUnits="userSpaceOnUse" color-interpolation-filters="sRGB">
<feFlood flood-opacity="0" result="BackgroundImageFix"/>
<feGaussianBlur in="BackgroundImageFix" stdDeviation="12"/>
<feComposite in2="SourceAlpha" operator="in" result="effect1_backgroundBlur_236_7158"/>
<feBlend mode="normal" in="SourceGraphic" in2="effect1_backgroundBlur_236_7158" result="shape"/>
</filter>
<filter id="filter2_bd_236_7158" x="32.0215" y="37.3232" width="72.2773" height="49.0928" filterUnits="userSpaceOnUse" color-interpolation-filters="sRGB">
<feFlood flood-opacity="0" result="BackgroundImageFix"/>
<feGaussianBlur in="BackgroundImageFix" stdDeviation="7.5"/>
<feComposite in2="SourceAlpha" operator="in" result="effect1_backgroundBlur_236_7158"/>
<feColorMatrix in="SourceAlpha" type="matrix" values="0 0 0 0 0 0 0 0 0 0 0 0 0 0 0 0 0 0 127 0" result="hardAlpha"/>
<feOffset dx="5" dy="5"/>
<feGaussianBlur stdDeviation="5"/>
<feColorMatrix type="matrix" values="0 0 0 0 1 0 0 0 0 1 0 0 0 0 1 0 0 0 0.5 0"/>
<feBlend mode="normal" in2="effect1_backgroundBlur_236_7158" result="effect2_dropShadow_236_7158"/>
<feBlend mode="normal" in="SourceGraphic" in2="effect2_dropShadow_236_7158" result="shape"/>
</filter>
<linearGradient id="paint0_linear_236_7158" x1="68.3016" y1="0.000178238" x2="42.2878" y2="75.2592" gradientUnits="userSpaceOnUse">
<stop stop-color="white"/>
<stop offset="1" stop-color="#153860"/>
</linearGradient>
<linearGradient id="paint1_linear_236_7158" x1="43.295" y1="33.8715" x2="90.1107" y2="91.8539" gradientUnits="userSpaceOnUse">
<stop stop-color="white" stop-opacity="0.25"/>
<stop offset="1" stop-color="white" stop-opacity="0"/>
</linearGradient>
<linearGradient id="paint2_linear_236_7158" x1="86.301" y1="55.771" x2="39.4029" y2="59.1569" gradientUnits="userSpaceOnUse">
<stop stop-color="white"/>
<stop offset="1" stop-color="white" stop-opacity="0.2"/>
</linearGradient>
<linearGradient id="paint3_linear_236_7158" x1="51.5756" y1="58.7279" x2="87.4704" y2="59.1667" gradientUnits="userSpaceOnUse">
<stop stop-color="white"/>
<stop offset="1" stop-color="white" stop-opacity="0"/>
</linearGradient>
</defs>
</svg>
