<svg width="116" height="106" viewBox="0 0 116 106" fill="none" xmlns="http://www.w3.org/2000/svg">
<path fill-rule="evenodd" clip-rule="evenodd" d="M45.1359 6.84143L17.0557 16.546C17.0254 16.5564 16.9952 16.567 16.965 16.5776C7.59603 19.8244 2.65498 30.1226 5.92689 39.5899L16.4736 70.1071C16.4902 70.155 16.5069 70.2029 16.5239 70.2506L20.1834 80.8395C23.6154 90.77 34.4176 96.0584 44.2499 92.6603L54.3368 89.1743C54.3684 89.1635 54.4001 89.1527 54.4318 89.1417L74.2755 82.2837C74.3061 82.2732 74.3366 82.2625 74.3671 82.2518C83.7355 79.0046 88.6761 68.7068 85.4043 59.2397L72.29 21.2933L72.2892 21.2929L71.1478 17.9902C67.7158 8.05965 56.9135 2.77133 47.0813 6.16935L45.1362 6.84159L45.1359 6.84143Z" fill="url(#paint0_linear_251_7227)"/>
<g opacity="0.5" filter="url(#filter0_f_251_7227)">
<path d="M63.1695 68.9837L55.38 71.6757C50.0094 73.5318 44.1027 73.0158 39.1353 70.2565L37.7823 69.5049C33.474 67.1117 30.201 63.2121 28.5911 58.5541L23.2337 43.0523C21.2723 37.3769 24.0756 31.2589 29.4957 29.3857L46.8928 23.3733C52.5752 21.4094 58.8773 24.6368 60.9337 30.5867L69.4595 55.2562C71.4209 60.9316 68.6116 67.1029 63.1695 68.9837Z" fill="#153860"/>
</g>
<g filter="url(#filter1_b_251_7227)">
<path d="M53.709 21.4121L84.3788 21.4121L105.999 44.6689L105.999 86.1148C105.999 96.4605 97.6975 104.846 87.4541 104.846H54.5764C43.8374 104.846 35.0811 96.0433 35.0811 85.197L35.0811 40.2264C35.0811 29.8806 43.4244 21.4121 53.709 21.4121Z" fill="#153860" fill-opacity="0.35"/>
<path d="M84.745 21.0717C84.6504 20.9699 84.5177 20.9121 84.3788 20.9121L53.709 20.9121C43.1429 20.9121 34.5811 29.6099 34.5811 40.2264L34.5811 85.197C34.5811 96.3162 43.558 105.346 54.5764 105.346H87.4541C97.9783 105.346 106.499 96.7319 106.499 86.1148L106.499 44.6689C106.499 44.5425 106.452 44.4209 106.366 44.3284L84.745 21.0717Z" stroke="url(#paint1_linear_251_7227)" stroke-linecap="round" stroke-linejoin="round"/>
</g>
<g filter="url(#filter2_bd_251_7227)">
<path d="M88.204 47.9993C91.0829 48.0285 95.0852 48.041 98.4804 48.0285C100.219 48.0243 101.103 45.926 99.8971 44.662C95.5354 40.0815 87.7331 31.8841 83.2682 27.1952C82.0332 25.8978 79.873 26.7905 79.873 28.5885V39.585C79.873 44.1989 83.6358 47.9993 88.204 47.9993Z" fill="url(#paint2_linear_251_7227)"/>
<path d="M88.206 47.7993H88.204C83.7481 47.7993 80.073 44.0903 80.073 39.585V28.5885C80.073 26.9639 82.0178 26.1717 83.1233 27.3331L83.1234 27.3331C85.3577 29.6796 88.4295 32.9064 91.4874 36.1185C94.538 39.3231 97.5747 42.5131 99.7522 44.7999L99.7524 44.8C100.839 45.9393 100.04 47.8248 98.4799 47.8285H98.4796C95.0853 47.841 91.0839 47.8285 88.206 47.7993Z" stroke="url(#paint3_linear_251_7227)" stroke-width="0.4"/>
</g>
<g filter="url(#filter3_bd_251_7227)">
<rect x="58" y="49" width="24" height="38" rx="4" fill="url(#paint4_linear_251_7227)"/>
<rect x="58.1" y="49.1" width="23.8" height="37.8" rx="3.9" stroke="url(#paint5_linear_251_7227)" stroke-opacity="0.5" stroke-width="0.2"/>
</g>
<g filter="url(#filter4_bd_251_7227)">
<circle cx="62.5" cy="69.5" r="2.5" fill="url(#paint6_linear_251_7227)"/>
<circle cx="62.5" cy="69.5" r="2.4" stroke="url(#paint7_linear_251_7227)" stroke-opacity="0.5" stroke-width="0.2"/>
</g>
<defs>
<filter id="filter0_f_251_7227" x="3.6084" y="3.79834" width="85.4756" height="87.9746" filterUnits="userSpaceOnUse" color-interpolation-filters="sRGB">
<feFlood flood-opacity="0" result="BackgroundImageFix"/>
<feBlend mode="normal" in="SourceGraphic" in2="BackgroundImageFix" result="shape"/>
<feGaussianBlur stdDeviation="9.5" result="effect1_foregroundBlur_251_7227"/>
</filter>
<filter id="filter1_b_251_7227" x="10.0811" y="-3.58789" width="120.918" height="133.434" filterUnits="userSpaceOnUse" color-interpolation-filters="sRGB">
<feFlood flood-opacity="0" result="BackgroundImageFix"/>
<feGaussianBlur in="BackgroundImageFix" stdDeviation="12"/>
<feComposite in2="SourceAlpha" operator="in" result="effect1_backgroundBlur_251_7227"/>
<feBlend mode="normal" in="SourceGraphic" in2="effect1_backgroundBlur_251_7227" result="shape"/>
</filter>
<filter id="filter2_bd_251_7227" x="64.873" y="11.5801" width="50.5801" height="51.4531" filterUnits="userSpaceOnUse" color-interpolation-filters="sRGB">
<feFlood flood-opacity="0" result="BackgroundImageFix"/>
<feGaussianBlur in="BackgroundImageFix" stdDeviation="7.5"/>
<feComposite in2="SourceAlpha" operator="in" result="effect1_backgroundBlur_251_7227"/>
<feColorMatrix in="SourceAlpha" type="matrix" values="0 0 0 0 0 0 0 0 0 0 0 0 0 0 0 0 0 0 127 0" result="hardAlpha"/>
<feOffset dx="5" dy="5"/>
<feGaussianBlur stdDeviation="5"/>
<feColorMatrix type="matrix" values="0 0 0 0 1 0 0 0 0 1 0 0 0 0 1 0 0 0 0.5 0"/>
<feBlend mode="normal" in2="effect1_backgroundBlur_251_7227" result="effect2_dropShadow_251_7227"/>
<feBlend mode="normal" in="SourceGraphic" in2="effect2_dropShadow_251_7227" result="shape"/>
</filter>
<filter id="filter3_bd_251_7227" x="43" y="34" width="56" height="70" filterUnits="userSpaceOnUse" color-interpolation-filters="sRGB">
<feFlood flood-opacity="0" result="BackgroundImageFix"/>
<feGaussianBlur in="BackgroundImageFix" stdDeviation="7.5"/>
<feComposite in2="SourceAlpha" operator="in" result="effect1_backgroundBlur_251_7227"/>
<feColorMatrix in="SourceAlpha" type="matrix" values="0 0 0 0 0 0 0 0 0 0 0 0 0 0 0 0 0 0 127 0" result="hardAlpha"/>
<feOffset dx="5" dy="5"/>
<feGaussianBlur stdDeviation="6"/>
<feColorMatrix type="matrix" values="0 0 0 0 1 0 0 0 0 1 0 0 0 0 1 0 0 0 0.28 0"/>
<feBlend mode="normal" in2="effect1_backgroundBlur_251_7227" result="effect2_dropShadow_251_7227"/>
<feBlend mode="normal" in="SourceGraphic" in2="effect2_dropShadow_251_7227" result="shape"/>
</filter>
<filter id="filter4_bd_251_7227" x="45" y="52" width="35" height="35" filterUnits="userSpaceOnUse" color-interpolation-filters="sRGB">
<feFlood flood-opacity="0" result="BackgroundImageFix"/>
<feGaussianBlur in="BackgroundImageFix" stdDeviation="7.5"/>
<feComposite in2="SourceAlpha" operator="in" result="effect1_backgroundBlur_251_7227"/>
<feColorMatrix in="SourceAlpha" type="matrix" values="0 0 0 0 0 0 0 0 0 0 0 0 0 0 0 0 0 0 127 0" result="hardAlpha"/>
<feOffset dx="5" dy="5"/>
<feGaussianBlur stdDeviation="5"/>
<feColorMatrix type="matrix" values="0 0 0 0 0.15375 0 0 0 0 0.522433 0 0 0 0 0.9 0 0 0 0.5 0"/>
<feBlend mode="normal" in2="effect1_backgroundBlur_251_7227" result="effect2_dropShadow_251_7227"/>
<feBlend mode="normal" in="SourceGraphic" in2="effect2_dropShadow_251_7227" result="shape"/>
</filter>
<linearGradient id="paint0_linear_251_7227" x1="36.2277" y1="9.92009" x2="62.628" y2="86.3095" gradientUnits="userSpaceOnUse">
<stop stop-color="white"/>
<stop offset="1" stop-color="#153860"/>
</linearGradient>
<linearGradient id="paint1_linear_251_7227" x1="46.3701" y1="31.1322" x2="100.742" y2="88.3723" gradientUnits="userSpaceOnUse">
<stop stop-color="white" stop-opacity="0.25"/>
<stop offset="1" stop-color="white" stop-opacity="0"/>
</linearGradient>
<linearGradient id="paint2_linear_251_7227" x1="98.9942" y1="30.4541" x2="76.0678" y2="31.1712" gradientUnits="userSpaceOnUse">
<stop stop-color="white"/>
<stop offset="1" stop-color="white" stop-opacity="0.2"/>
</linearGradient>
<linearGradient id="paint3_linear_251_7227" x1="83.1491" y1="29.0794" x2="96.9429" y2="45.4682" gradientUnits="userSpaceOnUse">
<stop stop-color="white" stop-opacity="0.25"/>
<stop offset="1" stop-color="white" stop-opacity="0"/>
</linearGradient>
<linearGradient id="paint4_linear_251_7227" x1="80.2984" y1="55.862" x2="53.5476" y2="56.4129" gradientUnits="userSpaceOnUse">
<stop stop-color="white"/>
<stop offset="1" stop-color="white" stop-opacity="0.2"/>
</linearGradient>
<linearGradient id="paint5_linear_251_7227" x1="60.5853" y1="61.7472" x2="80.965" y2="61.8182" gradientUnits="userSpaceOnUse">
<stop stop-color="white"/>
<stop offset="1" stop-color="white" stop-opacity="0"/>
</linearGradient>
<linearGradient id="paint6_linear_251_7227" x1="64.6455" y1="67.9029" x2="59.076" y2="68.0845" gradientUnits="userSpaceOnUse">
<stop stop-color="white"/>
<stop offset="1" stop-color="white" stop-opacity="0.2"/>
</linearGradient>
<linearGradient id="paint7_linear_251_7227" x1="60.5386" y1="68.6773" x2="64.7843" y2="68.7007" gradientUnits="userSpaceOnUse">
<stop stop-color="white"/>
<stop offset="1" stop-color="white" stop-opacity="0"/>
</linearGradient>
</defs>
</svg>
