<svg width="45" height="45" viewBox="0 0 45 45" fill="none" xmlns="http://www.w3.org/2000/svg">
<path d="M25.1513 22.5L30.4556 17.1975C30.6298 17.0233 30.768 16.8165 30.8623 16.5889C30.9566 16.3613 31.0051 16.1173 31.0051 15.8709C31.0051 15.6246 30.9566 15.3806 30.8623 15.153C30.768 14.9254 30.6298 14.7186 30.4556 14.5444C30.2814 14.3702 30.0746 14.232 29.847 14.1377C29.6194 14.0434 29.3754 13.9949 29.1291 13.9949C28.8827 13.9949 28.6387 14.0434 28.4111 14.1377C28.1835 14.232 27.9767 14.3702 27.8025 14.5444L22.5 19.8488L17.1975 14.5444C16.8457 14.1926 16.3685 13.9949 15.8709 13.9949C15.3734 13.9949 14.8962 14.1926 14.5444 14.5444C14.1926 14.8962 13.9949 15.3734 13.9949 15.8709C13.9949 16.1173 14.0434 16.3613 14.1377 16.5889C14.232 16.8165 14.3702 17.0233 14.5444 17.1975L19.8488 22.5L14.5444 27.8025C14.1926 28.1543 13.9949 28.6315 13.9949 29.1291C13.9949 29.6266 14.1926 30.1038 14.5444 30.4556C14.8962 30.8075 15.3734 31.0051 15.8709 31.0051C16.3685 31.0051 16.8457 30.8075 17.1975 30.4556L22.5 25.1513L27.8025 30.4556C28.1543 30.8075 28.6315 31.0051 29.1291 31.0051C29.6266 31.0051 30.1038 30.8075 30.4556 30.4556C30.8075 30.1038 31.0051 29.6266 31.0051 29.1291C31.0051 28.6315 30.8075 28.1543 30.4556 27.8025L25.1513 22.5ZM22.5 41.25C12.1444 41.25 3.75 32.8556 3.75 22.5C3.75 12.1444 12.1444 3.75 22.5 3.75C32.8556 3.75 41.25 12.1444 41.25 22.5C41.25 32.8556 32.8556 41.25 22.5 41.25Z" fill="#8A8A8A"/>
</svg>
