<!-- <svg width="26" height="21" viewBox="0 0 26 21" fill="none" xmlns="http://www.w3.org/2000/svg">
<path d="M8.25761 16.5699L2.09212 10.0421L0 12.2572L8.25761 21L26 2.21506L23.9079 0L8.25761 16.5699Z" fill="#008000"/>
</svg> -->


<svg width="20" height="20" viewBox="0 0 20 20" fill="none" xmlns="http://www.w3.org/2000/svg">
    <path d="M3.125 8.03457V3.45096C3.125 3.28519 3.19085 3.12621 3.30807 3.009C3.42529 2.89178 3.58427 2.82593 3.75004 2.82593H16.2508C16.4165 2.82593 16.5755 2.89178 16.6927 3.009C16.81 3.12621 16.8758 3.28519 16.8758 3.45096V8.03457C16.8758 14.5987 11.3047 16.7734 10.1923 17.1422C10.068 17.185 9.93286 17.185 9.8085 17.1422C8.69611 16.7734 3.125 14.5987 3.125 8.03457Z" stroke="#008000" stroke-width="2" stroke-linecap="round" stroke-linejoin="round"/>
    <path d="M13.4379 7.20117L8.85428 11.5764L6.5625 9.3888" stroke="#008000" stroke-width="2" stroke-linecap="round" stroke-linejoin="round"/>
</svg>    