<svg width="17" height="17" viewBox="0 0 17 17" fill="none" xmlns="http://www.w3.org/2000/svg">
<path d="M7.64291 10.7454C7.50125 10.7454 7.36667 10.6887 7.2675 10.5896L5.55333 8.87541C5.34791 8.66999 5.34791 8.32999 5.55333 8.12457C5.75875 7.91916 6.09875 7.91916 6.30416 8.12457L7.64291 9.46332L10.6887 6.41749C10.8942 6.21207 11.2342 6.21207 11.4396 6.41749C11.645 6.62291 11.645 6.96291 11.4396 7.16832L8.01833 10.5896C7.91916 10.6887 7.78458 10.7454 7.64291 10.7454Z" fill="white"/>
<path d="M8.5 16.1146C8.05375 16.1146 7.6075 15.9659 7.26042 15.6684L6.14125 14.705C6.02792 14.6059 5.74459 14.5067 5.59584 14.5067H4.3775C3.32917 14.5067 2.47917 13.6567 2.47917 12.6084V11.3971C2.47917 11.2484 2.38 10.9721 2.28084 10.8588L1.32459 9.73252C0.743753 9.04544 0.743753 7.96169 1.32459 7.2746L2.28084 6.14835C2.38 6.03502 2.47917 5.75877 2.47917 5.61002V4.39169C2.47917 3.34335 3.32917 2.49335 4.3775 2.49335H5.60292C5.75167 2.49335 6.035 2.3871 6.14834 2.29502L7.2675 1.33169C7.96167 0.736687 9.04542 0.736687 9.73959 1.33169L10.8588 2.29502C10.9721 2.39419 11.2554 2.49335 11.4042 2.49335H12.6083C13.6567 2.49335 14.5067 3.34335 14.5067 4.39169V5.59585C14.5067 5.7446 14.6129 6.02794 14.7121 6.14127L15.6754 7.26044C16.2704 7.9546 16.2704 9.03835 15.6754 9.73252L14.7121 10.8517C14.6129 10.965 14.5067 11.2484 14.5067 11.3971V12.6013C14.5067 13.6496 13.6567 14.4996 12.6083 14.4996H11.4042C11.2554 14.4996 10.9721 14.6059 10.8588 14.6979L9.73959 15.6613C9.3925 15.9659 8.94625 16.1146 8.5 16.1146ZM4.3775 3.55585C3.91709 3.55585 3.54167 3.93127 3.54167 4.39169V5.60294C3.54167 6.00669 3.35042 6.52377 3.08834 6.82835L2.13209 7.9546C1.88417 8.24502 1.88417 8.74794 2.13209 9.03835L3.08834 10.1646C3.35042 10.4763 3.54167 10.9863 3.54167 11.39V12.6013C3.54167 13.0617 3.91709 13.4371 4.3775 13.4371H5.60292C6.01375 13.4371 6.53084 13.6284 6.8425 13.8975L7.96167 14.8609C8.25209 15.1088 8.76209 15.1088 9.0525 14.8609L10.1717 13.8975C10.4833 13.6354 11.0004 13.4371 11.4113 13.4371H12.6154C13.0758 13.4371 13.4513 13.0617 13.4513 12.6013V11.3971C13.4513 10.9863 13.6425 10.4692 13.9117 10.1575L14.875 9.03835C15.1229 8.74794 15.1229 8.23794 14.875 7.94752L13.9117 6.82835C13.6425 6.51669 13.4513 5.9996 13.4513 5.58877V4.39169C13.4513 3.93127 13.0758 3.55585 12.6154 3.55585H11.4113C11.0004 3.55585 10.4833 3.3646 10.1717 3.09544L9.0525 2.1321C8.76209 1.88419 8.25209 1.88419 7.96167 2.1321L6.8425 3.10252C6.53084 3.3646 6.00667 3.55585 5.60292 3.55585H4.3775Z" fill="white"/>
</svg>
