<svg width="303" height="810" viewBox="0 0 303 810" fill="none" xmlns="http://www.w3.org/2000/svg">
<path d="M139.043 25.5C139.043 14.5284 133.344 5.33751 131.566 2.7365C131.276 2.31277 130.729 2.19301 130.295 2.46666C125.039 5.77849 93.4448 26.1981 79.5425 47C57.1246 80.5435 70.2504 122.711 67.0425 147C63.5425 173.5 47.7316 196.079 41.0425 229C28.5232 290.615 48.0425 341 41.0425 390C37.8776 412.155 19.5979 418.602 13.0425 440C-13.4575 526.5 13.3826 664.382 34.5425 674C62.0426 686.5 110.042 672.5 120.542 678C131.043 683.5 140.773 696.212 156.543 706C171.043 715 186.543 732 177.043 744.891C167.543 757.782 67.0426 742.74 31.0425 767.891C23.9468 772.848 15.8191 779.292 12.0425 788C8.17457 796.919 10.9086 805.181 11.7932 807.412C11.9379 807.777 12.2895 807.995 12.6812 807.971C15.0811 807.824 23.9889 806.963 35.0425 802C44.7072 797.66 56.0125 786.987 66.0425 788C115.543 793 168.543 808 206.043 793C235.609 781.173 256.543 748.5 251.043 725.5C245.287 701.43 187.485 671.302 206.043 666C216.543 663 248.043 672 267.543 662.5C290.637 651.249 284.521 603.492 284.068 600.181C284.05 600.052 284.05 599.968 284.081 599.842C285.053 595.886 303.861 518.445 300.042 468C295.335 405.81 270.043 357.5 251.043 316C236.84 284.978 251.653 262.015 243.043 229C236.015 202.053 210.443 183 216.043 163C223.043 138 239.024 120.44 237.543 87.5C236.103 55.4983 209.985 10.3087 205.65 3.0121C205.328 2.47105 204.62 2.39581 204.176 2.84131C201.384 5.63861 192.715 15.0446 191.043 25.5M139.043 25.5C159.043 23.5 170.543 22.5 191.043 25.5M139.043 25.5C135.918 26.6716 131.043 27 131.043 27M191.043 25.5C193.971 26.6716 198.543 27 198.543 27" stroke="white" stroke-width="4" stroke-linecap="round" stroke-linejoin="round"/>
</svg>
