<svg width="865" height="478" viewBox="0 0 865 478" fill="none" xmlns="http://www.w3.org/2000/svg">
<path d="M812.048 193.986L809.548 198.486M812.048 193.986C812.048 193.986 822.881 181.072 824.548 170.986C825.847 163.125 822.484 151.507 821.383 148.015C821.207 147.458 821.533 146.862 822.099 146.717L861.483 136.642C862.376 136.414 862.522 135.192 861.709 134.759C857.358 132.443 847.382 126.978 835.548 119.486C814.237 105.994 785.652 86.7162 761.048 74.9863C731.8 61.0425 706.336 61.1564 681.048 52.9863C648.548 42.4863 631.289 23.1586 593.548 13.4863C494.048 -12.0137 411.048 7.48625 318.048 46.9863C236.7 81.5372 181.048 129.986 157.048 193.986C151.798 207.986 102.758 199.784 74.048 214.986C31.0676 237.745 16.4301 266.242 5.04805 310.986C-4.53691 348.666 11.4981 409.907 12.0343 411.935C12.0513 411.999 12.0455 411.981 12.0752 412.041C13.0089 413.909 37.9343 463.322 68.048 474.986C89.0481 483.121 30.7887 358.875 68.048 302.986C102.048 251.986 163.048 271.986 163.048 271.986M812.048 193.986C812.048 193.986 823.911 198.459 830.548 202.986C834.656 205.788 839.68 210.603 842.288 213.2C842.929 213.838 842.444 214.959 841.54 214.978C838.69 215.038 833.469 215.329 826.164 216.468C826.088 216.48 826.014 216.5 825.943 216.529C807.427 223.998 775.515 226.986 758.048 226.986C724.817 226.986 705.548 234.486 673.048 230.986M673.048 230.986C673.048 227.472 673.048 221.986 673.048 221.986M673.048 230.986C675.708 249.804 674.755 261.359 669.048 279.486C663.426 297.344 645.048 320.986 645.048 320.986M645.048 320.986C645.048 320.986 646.857 347.768 635.048 354.986C628.145 359.206 625.091 360.335 614.548 357.986C606.548 356.204 598.547 329.208 588.048 310.986C579.82 296.706 571.048 284.869 559.548 279.486C536.048 268.486 498.048 301.986 457.548 323.486C447.035 329.067 430.767 330.587 420.263 330.951C419.054 330.993 418.714 333.404 419.87 333.761C433.802 338.069 459.053 347.319 472.048 360.986C488.176 377.948 511.548 404.986 498.048 414.986C492.606 419.017 482.858 417.671 476.968 416.328C475.898 416.083 475.005 417.674 475.799 418.431C482.999 425.293 498.048 440.955 498.048 451.986C498.048 464.678 485.855 475.352 472.048 471.486C462.475 468.806 456.596 457.062 448.048 451.986C416.048 432.986 333.048 423.986 321.048 414.986C311.051 407.488 319.912 387.659 310.048 379.986C301.048 372.986 255.098 370.742 224.048 348.986C192.63 326.973 163.048 271.986 163.048 271.986M645.048 320.986L628.048 287.986M163.048 271.986L173.048 269.486M628.048 287.986C628.048 287.986 628.048 251.486 621.048 246.986C613.407 242.074 603.358 243.527 600.048 251.986C595.548 263.486 628.048 287.986 628.048 287.986Z" stroke="white" stroke-width="4" stroke-linecap="round" stroke-linejoin="round"/>
<ellipse cx="770.048" cy="150.486" rx="5" ry="5.5" fill="white" fill-opacity="0.6"/>
<path d="M774.048 150.486C774.048 153.063 772.169 154.986 770.048 154.986C767.926 154.986 766.048 153.063 766.048 150.486C766.048 147.909 767.926 145.986 770.048 145.986C772.169 145.986 774.048 147.909 774.048 150.486Z" stroke="white" stroke-opacity="0.8" stroke-width="2" stroke-linecap="round" stroke-linejoin="round"/>
<path d="M768.048 149.486C767.582 151.393 769.205 154.486 767.548 154.486C765.891 154.486 765.048 152.472 765.048 149.986C765.048 147.501 767.891 145.486 769.548 145.486C771.205 145.486 768.444 147.866 768.048 149.486Z" fill="white" fill-opacity="0.8"/>
<path d="M767.076 149.249C766.918 149.897 766.948 150.588 767.012 151.18C767.052 151.543 767.117 151.953 767.173 152.312C767.204 152.508 767.233 152.689 767.254 152.839C767.292 153.114 767.309 153.313 767.312 153.454C767.056 153.382 766.803 153.173 766.566 152.712C766.246 152.088 766.048 151.137 766.048 149.986C766.048 149.13 766.547 148.256 767.34 147.552C767.684 147.247 768.045 147.009 768.383 146.836C768.202 147.097 768.002 147.385 767.84 147.639C767.543 148.103 767.217 148.673 767.076 149.249ZM769.598 146.489C769.598 146.489 769.593 146.489 769.583 146.487C769.594 146.488 769.598 146.489 769.598 146.489Z" stroke="white" stroke-opacity="0.8" stroke-width="2" stroke-linecap="round" stroke-linejoin="round"/>
<ellipse cx="768.048" cy="189.986" rx="5" ry="6" fill="white" fill-opacity="0.6"/>
<path d="M772.048 189.986C772.048 192.926 770.094 194.986 768.048 194.986C766.002 194.986 764.048 192.926 764.048 189.986C764.048 187.046 766.002 184.986 768.048 184.986C770.094 184.986 772.048 187.046 772.048 189.986Z" stroke="white" stroke-opacity="0.8" stroke-width="2" stroke-linecap="round" stroke-linejoin="round"/>
<path d="M766.048 188.486C765.582 190.393 767.705 194.486 766.048 194.486C764.391 194.486 763.548 191.472 763.548 188.986C763.548 186.501 765.891 184.486 767.548 184.486C769.205 184.486 766.444 186.866 766.048 188.486Z" fill="white" fill-opacity="0.8"/>
<path d="M765.076 188.249C764.909 188.935 764.987 189.721 765.098 190.391C765.177 190.87 765.291 191.386 765.395 191.853C765.438 192.048 765.48 192.235 765.516 192.407C765.59 192.761 765.641 193.047 765.668 193.272C765.483 193.078 765.286 192.758 765.107 192.303C764.746 191.382 764.548 190.136 764.548 188.986C764.548 188.061 764.988 187.175 765.643 186.502C765.859 186.28 766.084 186.096 766.305 185.948C766.146 186.178 765.979 186.421 765.84 186.639C765.543 187.103 765.217 187.673 765.076 188.249ZM765.678 193.772C765.678 193.772 765.678 193.77 765.679 193.766C765.678 193.77 765.678 193.772 765.678 193.772ZM767.598 185.489C767.598 185.489 767.593 185.489 767.583 185.487C767.594 185.488 767.598 185.489 767.598 185.489Z" stroke="white" stroke-opacity="0.8" stroke-width="2" stroke-linecap="round" stroke-linejoin="round"/>
<path d="M755.048 171.486C755.048 174.524 751.809 176.986 749.048 176.986C746.286 176.986 744.048 174.524 744.048 171.486C744.048 168.449 746.286 165.986 749.048 165.986C751.809 165.986 755.048 168.449 755.048 171.486Z" fill="white" fill-opacity="0.9"/>
<path d="M754.048 171.486C754.048 172.638 753.43 173.756 752.431 174.618C751.427 175.483 750.152 175.986 749.048 175.986C746.926 175.986 745.048 174.063 745.048 171.486C745.048 168.909 746.926 166.986 749.048 166.986C750.152 166.986 751.427 167.49 752.431 168.355C753.43 169.216 754.048 170.335 754.048 171.486Z" stroke="white" stroke-opacity="0.8" stroke-width="2" stroke-linecap="round" stroke-linejoin="round"/>
<path d="M746.548 169.486C745.814 172.486 749.205 175.486 747.548 175.486C745.891 175.486 744.548 173.472 744.548 170.986C744.548 168.501 747.391 166.486 749.048 166.486C750.048 166.986 746.944 167.866 746.548 169.486Z" fill="white" fill-opacity="0.6"/>
<path d="M746.259 173.614C745.925 173.113 745.672 172.424 745.583 171.623C745.758 172.43 746.07 173.157 746.344 173.735C746.315 173.696 746.287 173.656 746.259 173.614ZM747.015 175.208C747.014 175.207 747.013 175.202 747.012 175.191C747.015 175.203 747.015 175.208 747.015 175.208ZM747.56 174.486C747.568 174.485 747.573 174.485 747.573 174.485C747.574 174.485 747.569 174.486 747.56 174.486Z" stroke="white" stroke-opacity="0.8" stroke-width="2" stroke-linecap="round" stroke-linejoin="round"/>
</svg>
